M48
;DRILL file {KiCad (5.0.0-3-g5ebb6b6)} date Tuesday, 13 November 2018 at 12:47:29
;FORMAT={-:-/ absolute / inch / decimal}
FMAT,2
INCH,TZ
T1C0.0197
T2C0.0295
T3C0.0299
T4C0.0315
T5C0.0394
T6C0.0400
T7C0.1260
%
G90
G05
M72
T1
X2.05Y-2.2
X2.125Y-1.45
X2.425Y-2.3
X2.65Y-1.5
X2.65Y-1.75
X2.9098Y-2.0678
T2
X2.775Y-1.725
X2.825Y-1.775
X2.875Y-1.725
X1.8394Y-1.975
X1.9Y-1.925
X1.9Y-2.025
T3
X2.15Y-2.475
X2.15Y-2.575
X2.15Y-2.675
X2.25Y-2.425
X2.25Y-2.525
X2.25Y-2.625
T4
X2.775Y-2.125
X2.875Y-2.125
X1.8463Y-1.35
X1.925Y-1.35
X2.3463Y-1.6686
X2.3463Y-2.0686
X1.8463Y-1.7
X1.925Y-1.7
X2.775Y-1.95
X2.875Y-1.95
X2.5713Y-2.45
X2.65Y-2.45
X2.5213Y-1.6686
X2.5213Y-2.0686
X2.1713Y-1.6686
X2.1713Y-2.0686
X2.775Y-1.5
X2.875Y-1.5
T5
X1.725Y-1.825
X2.1963Y-1.2936
X2.1963Y-1.3936
X2.2963Y-1.2936
X2.2963Y-1.3936
X2.3963Y-1.2936
X2.3963Y-1.3936
X2.4963Y-1.2936
X2.4963Y-1.3936
X1.725Y-2.125
X1.725Y-1.475
T6
X2.1963Y-1.2936
X2.1963Y-1.3936
X2.2963Y-1.2936
X2.2963Y-1.3936
X2.3963Y-1.2936
X2.3963Y-1.3936
X2.4963Y-1.2936
X2.4963Y-1.3936
T7
X1.7Y-1.225
X2.825Y-1.225
X2.825Y-2.775
T0
M30
