G04 #@! TF.GenerationSoftware,KiCad,Pcbnew,(5.0.0-3-g5ebb6b6)*
G04 #@! TF.CreationDate,2018-11-13T12:47:17+01:00*
G04 #@! TF.ProjectId,DSMRlogger_v3,44534D526C6F676765725F76332E6B69,rev?*
G04 #@! TF.SameCoordinates,Original*
G04 #@! TF.FileFunction,Legend,Bot*
G04 #@! TF.FilePolarity,Positive*
%FSLAX46Y46*%
G04 Gerber Fmt 4.6, Leading zero omitted, Abs format (unit mm)*
G04 Created by KiCad (PCBNEW (5.0.0-3-g5ebb6b6)) date Tuesday, 13 November 2018 at 12:47:17*
%MOMM*%
%LPD*%
G01*
G04 APERTURE LIST*
%ADD10C,0.150000*%
%ADD11C,0.200000*%
%ADD12C,0.300000*%
G04 APERTURE END LIST*
D10*
X42183095Y-67474761D02*
X42183095Y-67931904D01*
X42183095Y-67703333D02*
X42983095Y-67703333D01*
X42868809Y-67779523D01*
X42792619Y-67855714D01*
X42754523Y-67931904D01*
X42983095Y-67208095D02*
X42983095Y-66712857D01*
X42678333Y-66979523D01*
X42678333Y-66865238D01*
X42640238Y-66789047D01*
X42602142Y-66750952D01*
X42525952Y-66712857D01*
X42335476Y-66712857D01*
X42259285Y-66750952D01*
X42221190Y-66789047D01*
X42183095Y-66865238D01*
X42183095Y-67093809D01*
X42221190Y-67170000D01*
X42259285Y-67208095D01*
X42716428Y-66370000D02*
X42183095Y-66370000D01*
X42640238Y-66370000D02*
X42678333Y-66331904D01*
X42716428Y-66255714D01*
X42716428Y-66141428D01*
X42678333Y-66065238D01*
X42602142Y-66027142D01*
X42183095Y-66027142D01*
X42183095Y-65531904D02*
X42221190Y-65608095D01*
X42259285Y-65646190D01*
X42335476Y-65684285D01*
X42564047Y-65684285D01*
X42640238Y-65646190D01*
X42678333Y-65608095D01*
X42716428Y-65531904D01*
X42716428Y-65417619D01*
X42678333Y-65341428D01*
X42640238Y-65303333D01*
X42564047Y-65265238D01*
X42335476Y-65265238D01*
X42259285Y-65303333D01*
X42221190Y-65341428D01*
X42183095Y-65417619D01*
X42183095Y-65531904D01*
X42716428Y-64998571D02*
X42183095Y-64808095D01*
X42716428Y-64617619D01*
X42906904Y-64350952D02*
X42945000Y-64312857D01*
X42983095Y-64236666D01*
X42983095Y-64046190D01*
X42945000Y-63970000D01*
X42906904Y-63931904D01*
X42830714Y-63893809D01*
X42754523Y-63893809D01*
X42640238Y-63931904D01*
X42183095Y-64389047D01*
X42183095Y-63893809D01*
X42983095Y-63398571D02*
X42983095Y-63322380D01*
X42945000Y-63246190D01*
X42906904Y-63208095D01*
X42830714Y-63170000D01*
X42678333Y-63131904D01*
X42487857Y-63131904D01*
X42335476Y-63170000D01*
X42259285Y-63208095D01*
X42221190Y-63246190D01*
X42183095Y-63322380D01*
X42183095Y-63398571D01*
X42221190Y-63474761D01*
X42259285Y-63512857D01*
X42335476Y-63550952D01*
X42487857Y-63589047D01*
X42678333Y-63589047D01*
X42830714Y-63550952D01*
X42906904Y-63512857D01*
X42945000Y-63474761D01*
X42983095Y-63398571D01*
X42183095Y-62370000D02*
X42183095Y-62827142D01*
X42183095Y-62598571D02*
X42983095Y-62598571D01*
X42868809Y-62674761D01*
X42792619Y-62750952D01*
X42754523Y-62827142D01*
X42640238Y-61912857D02*
X42678333Y-61989047D01*
X42716428Y-62027142D01*
X42792619Y-62065238D01*
X42830714Y-62065238D01*
X42906904Y-62027142D01*
X42945000Y-61989047D01*
X42983095Y-61912857D01*
X42983095Y-61760476D01*
X42945000Y-61684285D01*
X42906904Y-61646190D01*
X42830714Y-61608095D01*
X42792619Y-61608095D01*
X42716428Y-61646190D01*
X42678333Y-61684285D01*
X42640238Y-61760476D01*
X42640238Y-61912857D01*
X42602142Y-61989047D01*
X42564047Y-62027142D01*
X42487857Y-62065238D01*
X42335476Y-62065238D01*
X42259285Y-62027142D01*
X42221190Y-61989047D01*
X42183095Y-61912857D01*
X42183095Y-61760476D01*
X42221190Y-61684285D01*
X42259285Y-61646190D01*
X42335476Y-61608095D01*
X42487857Y-61608095D01*
X42564047Y-61646190D01*
X42602142Y-61684285D01*
X42640238Y-61760476D01*
D11*
X43997619Y-67984285D02*
X44997619Y-67984285D01*
X44997619Y-67603333D01*
X44950000Y-67508095D01*
X44902380Y-67460476D01*
X44807142Y-67412857D01*
X44664285Y-67412857D01*
X44569047Y-67460476D01*
X44521428Y-67508095D01*
X44473809Y-67603333D01*
X44473809Y-67984285D01*
X44092857Y-66412857D02*
X44045238Y-66460476D01*
X43997619Y-66603333D01*
X43997619Y-66698571D01*
X44045238Y-66841428D01*
X44140476Y-66936666D01*
X44235714Y-66984285D01*
X44426190Y-67031904D01*
X44569047Y-67031904D01*
X44759523Y-66984285D01*
X44854761Y-66936666D01*
X44950000Y-66841428D01*
X44997619Y-66698571D01*
X44997619Y-66603333D01*
X44950000Y-66460476D01*
X44902380Y-66412857D01*
X44521428Y-65650952D02*
X44473809Y-65508095D01*
X44426190Y-65460476D01*
X44330952Y-65412857D01*
X44188095Y-65412857D01*
X44092857Y-65460476D01*
X44045238Y-65508095D01*
X43997619Y-65603333D01*
X43997619Y-65984285D01*
X44997619Y-65984285D01*
X44997619Y-65650952D01*
X44950000Y-65555714D01*
X44902380Y-65508095D01*
X44807142Y-65460476D01*
X44711904Y-65460476D01*
X44616666Y-65508095D01*
X44569047Y-65555714D01*
X44521428Y-65650952D01*
X44521428Y-65984285D01*
X44664285Y-64317619D02*
X43997619Y-64079523D01*
X44664285Y-63841428D01*
X44997619Y-63555714D02*
X44997619Y-62936666D01*
X44616666Y-63270000D01*
X44616666Y-63127142D01*
X44569047Y-63031904D01*
X44521428Y-62984285D01*
X44426190Y-62936666D01*
X44188095Y-62936666D01*
X44092857Y-62984285D01*
X44045238Y-63031904D01*
X43997619Y-63127142D01*
X43997619Y-63412857D01*
X44045238Y-63508095D01*
X44092857Y-63555714D01*
X44092857Y-62508095D02*
X44045238Y-62460476D01*
X43997619Y-62508095D01*
X44045238Y-62555714D01*
X44092857Y-62508095D01*
X43997619Y-62508095D01*
X44997619Y-61841428D02*
X44997619Y-61746190D01*
X44950000Y-61650952D01*
X44902380Y-61603333D01*
X44807142Y-61555714D01*
X44616666Y-61508095D01*
X44378571Y-61508095D01*
X44188095Y-61555714D01*
X44092857Y-61603333D01*
X44045238Y-61650952D01*
X43997619Y-61746190D01*
X43997619Y-61841428D01*
X44045238Y-61936666D01*
X44092857Y-61984285D01*
X44188095Y-62031904D01*
X44378571Y-62079523D01*
X44616666Y-62079523D01*
X44807142Y-62031904D01*
X44902380Y-61984285D01*
X44950000Y-61936666D01*
X44997619Y-61841428D01*
D12*
X70634285Y-39619285D02*
X70291428Y-40819285D01*
X69948571Y-39962142D01*
X69605714Y-40819285D01*
X69262857Y-39619285D01*
X68748571Y-39619285D02*
X68405714Y-40819285D01*
X68062857Y-39962142D01*
X67720000Y-40819285D01*
X67377142Y-39619285D01*
X66862857Y-39619285D02*
X66520000Y-40819285D01*
X66177142Y-39962142D01*
X65834285Y-40819285D01*
X65491428Y-39619285D01*
X64805714Y-40647857D02*
X64720000Y-40733571D01*
X64805714Y-40819285D01*
X64891428Y-40733571D01*
X64805714Y-40647857D01*
X64805714Y-40819285D01*
X63691428Y-40819285D02*
X63862857Y-40733571D01*
X63948571Y-40647857D01*
X64034285Y-40476428D01*
X64034285Y-39962142D01*
X63948571Y-39790714D01*
X63862857Y-39705000D01*
X63691428Y-39619285D01*
X63434285Y-39619285D01*
X63262857Y-39705000D01*
X63177142Y-39790714D01*
X63091428Y-39962142D01*
X63091428Y-40476428D01*
X63177142Y-40647857D01*
X63262857Y-40733571D01*
X63434285Y-40819285D01*
X63691428Y-40819285D01*
X62320000Y-39619285D02*
X62320000Y-41419285D01*
X62320000Y-39705000D02*
X62148571Y-39619285D01*
X61805714Y-39619285D01*
X61634285Y-39705000D01*
X61548571Y-39790714D01*
X61462857Y-39962142D01*
X61462857Y-40476428D01*
X61548571Y-40647857D01*
X61634285Y-40733571D01*
X61805714Y-40819285D01*
X62148571Y-40819285D01*
X62320000Y-40733571D01*
X60005714Y-40733571D02*
X60177142Y-40819285D01*
X60520000Y-40819285D01*
X60691428Y-40733571D01*
X60777142Y-40562142D01*
X60777142Y-39876428D01*
X60691428Y-39705000D01*
X60520000Y-39619285D01*
X60177142Y-39619285D01*
X60005714Y-39705000D01*
X59920000Y-39876428D01*
X59920000Y-40047857D01*
X60777142Y-40219285D01*
X59148571Y-39619285D02*
X59148571Y-40819285D01*
X59148571Y-39790714D02*
X59062857Y-39705000D01*
X58891428Y-39619285D01*
X58634285Y-39619285D01*
X58462857Y-39705000D01*
X58377142Y-39876428D01*
X58377142Y-40819285D01*
X56748571Y-40733571D02*
X56920000Y-40819285D01*
X57262857Y-40819285D01*
X57434285Y-40733571D01*
X57520000Y-40647857D01*
X57605714Y-40476428D01*
X57605714Y-39962142D01*
X57520000Y-39790714D01*
X57434285Y-39705000D01*
X57262857Y-39619285D01*
X56920000Y-39619285D01*
X56748571Y-39705000D01*
X55977142Y-40819285D02*
X55977142Y-39619285D01*
X55977142Y-39019285D02*
X56062857Y-39105000D01*
X55977142Y-39190714D01*
X55891428Y-39105000D01*
X55977142Y-39019285D01*
X55977142Y-39190714D01*
X55120000Y-40819285D02*
X55120000Y-39619285D01*
X55120000Y-39962142D02*
X55034285Y-39790714D01*
X54948571Y-39705000D01*
X54777142Y-39619285D01*
X54605714Y-39619285D01*
X53234285Y-40733571D02*
X53405714Y-40819285D01*
X53748571Y-40819285D01*
X53920000Y-40733571D01*
X54005714Y-40647857D01*
X54091428Y-40476428D01*
X54091428Y-39962142D01*
X54005714Y-39790714D01*
X53920000Y-39705000D01*
X53748571Y-39619285D01*
X53405714Y-39619285D01*
X53234285Y-39705000D01*
X51691428Y-39619285D02*
X51691428Y-40819285D01*
X52462857Y-39619285D02*
X52462857Y-40562142D01*
X52377142Y-40733571D01*
X52205714Y-40819285D01*
X51948571Y-40819285D01*
X51777142Y-40733571D01*
X51691428Y-40647857D01*
X50834285Y-40819285D02*
X50834285Y-39619285D01*
X50834285Y-39019285D02*
X50920000Y-39105000D01*
X50834285Y-39190714D01*
X50748571Y-39105000D01*
X50834285Y-39019285D01*
X50834285Y-39190714D01*
X50234285Y-39619285D02*
X49548571Y-39619285D01*
X49977142Y-39019285D02*
X49977142Y-40562142D01*
X49891428Y-40733571D01*
X49720000Y-40819285D01*
X49548571Y-40819285D01*
X48948571Y-40647857D02*
X48862857Y-40733571D01*
X48948571Y-40819285D01*
X49034285Y-40733571D01*
X48948571Y-40647857D01*
X48948571Y-40819285D01*
X48091428Y-39619285D02*
X48091428Y-40819285D01*
X48091428Y-39790714D02*
X48005714Y-39705000D01*
X47834285Y-39619285D01*
X47577142Y-39619285D01*
X47405714Y-39705000D01*
X47320000Y-39876428D01*
X47320000Y-40819285D01*
X46205714Y-40819285D02*
X46377142Y-40733571D01*
X46462857Y-40562142D01*
X46462857Y-39019285D01*
X67991428Y-47259761D02*
X67991428Y-45259761D01*
X67515238Y-45259761D01*
X67229523Y-45355000D01*
X67039047Y-45545476D01*
X66943809Y-45735952D01*
X66848571Y-46116904D01*
X66848571Y-46402619D01*
X66943809Y-46783571D01*
X67039047Y-46974047D01*
X67229523Y-47164523D01*
X67515238Y-47259761D01*
X67991428Y-47259761D01*
X66086666Y-47164523D02*
X65800952Y-47259761D01*
X65324761Y-47259761D01*
X65134285Y-47164523D01*
X65039047Y-47069285D01*
X64943809Y-46878809D01*
X64943809Y-46688333D01*
X65039047Y-46497857D01*
X65134285Y-46402619D01*
X65324761Y-46307380D01*
X65705714Y-46212142D01*
X65896190Y-46116904D01*
X65991428Y-46021666D01*
X66086666Y-45831190D01*
X66086666Y-45640714D01*
X65991428Y-45450238D01*
X65896190Y-45355000D01*
X65705714Y-45259761D01*
X65229523Y-45259761D01*
X64943809Y-45355000D01*
X64086666Y-47259761D02*
X64086666Y-45259761D01*
X63420000Y-46688333D01*
X62753333Y-45259761D01*
X62753333Y-47259761D01*
X60658095Y-47259761D02*
X61324761Y-46307380D01*
X61800952Y-47259761D02*
X61800952Y-45259761D01*
X61039047Y-45259761D01*
X60848571Y-45355000D01*
X60753333Y-45450238D01*
X60658095Y-45640714D01*
X60658095Y-45926428D01*
X60753333Y-46116904D01*
X60848571Y-46212142D01*
X61039047Y-46307380D01*
X61800952Y-46307380D01*
X59800952Y-46497857D02*
X58277142Y-46497857D01*
X57039047Y-47259761D02*
X57229523Y-47164523D01*
X57324761Y-46974047D01*
X57324761Y-45259761D01*
X55991428Y-47259761D02*
X56181904Y-47164523D01*
X56277142Y-47069285D01*
X56372380Y-46878809D01*
X56372380Y-46307380D01*
X56277142Y-46116904D01*
X56181904Y-46021666D01*
X55991428Y-45926428D01*
X55705714Y-45926428D01*
X55515238Y-46021666D01*
X55420000Y-46116904D01*
X55324761Y-46307380D01*
X55324761Y-46878809D01*
X55420000Y-47069285D01*
X55515238Y-47164523D01*
X55705714Y-47259761D01*
X55991428Y-47259761D01*
X53610476Y-45926428D02*
X53610476Y-47545476D01*
X53705714Y-47735952D01*
X53800952Y-47831190D01*
X53991428Y-47926428D01*
X54277142Y-47926428D01*
X54467619Y-47831190D01*
X53610476Y-47164523D02*
X53800952Y-47259761D01*
X54181904Y-47259761D01*
X54372380Y-47164523D01*
X54467619Y-47069285D01*
X54562857Y-46878809D01*
X54562857Y-46307380D01*
X54467619Y-46116904D01*
X54372380Y-46021666D01*
X54181904Y-45926428D01*
X53800952Y-45926428D01*
X53610476Y-46021666D01*
X51800952Y-45926428D02*
X51800952Y-47545476D01*
X51896190Y-47735952D01*
X51991428Y-47831190D01*
X52181904Y-47926428D01*
X52467619Y-47926428D01*
X52658095Y-47831190D01*
X51800952Y-47164523D02*
X51991428Y-47259761D01*
X52372380Y-47259761D01*
X52562857Y-47164523D01*
X52658095Y-47069285D01*
X52753333Y-46878809D01*
X52753333Y-46307380D01*
X52658095Y-46116904D01*
X52562857Y-46021666D01*
X52372380Y-45926428D01*
X51991428Y-45926428D01*
X51800952Y-46021666D01*
X50086666Y-47164523D02*
X50277142Y-47259761D01*
X50658095Y-47259761D01*
X50848571Y-47164523D01*
X50943809Y-46974047D01*
X50943809Y-46212142D01*
X50848571Y-46021666D01*
X50658095Y-45926428D01*
X50277142Y-45926428D01*
X50086666Y-46021666D01*
X49991428Y-46212142D01*
X49991428Y-46402619D01*
X50943809Y-46593095D01*
X49134285Y-47259761D02*
X49134285Y-45926428D01*
X49134285Y-46307380D02*
X49039047Y-46116904D01*
X48943809Y-46021666D01*
X48753333Y-45926428D01*
X48562857Y-45926428D01*
D11*
X67797857Y-50280000D02*
X67840714Y-50237142D01*
X67926428Y-50108571D01*
X67969285Y-50022857D01*
X68012142Y-49894285D01*
X68055000Y-49680000D01*
X68055000Y-49508571D01*
X68012142Y-49294285D01*
X67969285Y-49165714D01*
X67926428Y-49080000D01*
X67840714Y-48951428D01*
X67797857Y-48908571D01*
X67069285Y-49894285D02*
X67155000Y-49937142D01*
X67326428Y-49937142D01*
X67412142Y-49894285D01*
X67455000Y-49851428D01*
X67497857Y-49765714D01*
X67497857Y-49508571D01*
X67455000Y-49422857D01*
X67412142Y-49380000D01*
X67326428Y-49337142D01*
X67155000Y-49337142D01*
X67069285Y-49380000D01*
X66769285Y-50280000D02*
X66726428Y-50237142D01*
X66640714Y-50108571D01*
X66597857Y-50022857D01*
X66554999Y-49894285D01*
X66512142Y-49680000D01*
X66512142Y-49508571D01*
X66554999Y-49294285D01*
X66597857Y-49165714D01*
X66640714Y-49080000D01*
X66726428Y-48951428D01*
X66769285Y-48908571D01*
X65440714Y-49122857D02*
X65397857Y-49080000D01*
X65312142Y-49037142D01*
X65097857Y-49037142D01*
X65012142Y-49080000D01*
X64969285Y-49122857D01*
X64926428Y-49208571D01*
X64926428Y-49294285D01*
X64969285Y-49422857D01*
X65483571Y-49937142D01*
X64926428Y-49937142D01*
X64369285Y-49037142D02*
X64283571Y-49037142D01*
X64197857Y-49080000D01*
X64155000Y-49122857D01*
X64112142Y-49208571D01*
X64069285Y-49380000D01*
X64069285Y-49594285D01*
X64112142Y-49765714D01*
X64155000Y-49851428D01*
X64197857Y-49894285D01*
X64283571Y-49937142D01*
X64369285Y-49937142D01*
X64455000Y-49894285D01*
X64497857Y-49851428D01*
X64540714Y-49765714D01*
X64583571Y-49594285D01*
X64583571Y-49380000D01*
X64540714Y-49208571D01*
X64497857Y-49122857D01*
X64455000Y-49080000D01*
X64369285Y-49037142D01*
X63212142Y-49937142D02*
X63726428Y-49937142D01*
X63469285Y-49937142D02*
X63469285Y-49037142D01*
X63555000Y-49165714D01*
X63640714Y-49251428D01*
X63726428Y-49294285D01*
X62697857Y-49422857D02*
X62783571Y-49380000D01*
X62826428Y-49337142D01*
X62869285Y-49251428D01*
X62869285Y-49208571D01*
X62826428Y-49122857D01*
X62783571Y-49080000D01*
X62697857Y-49037142D01*
X62526428Y-49037142D01*
X62440714Y-49080000D01*
X62397857Y-49122857D01*
X62355000Y-49208571D01*
X62355000Y-49251428D01*
X62397857Y-49337142D01*
X62440714Y-49380000D01*
X62526428Y-49422857D01*
X62697857Y-49422857D01*
X62783571Y-49465714D01*
X62826428Y-49508571D01*
X62869285Y-49594285D01*
X62869285Y-49765714D01*
X62826428Y-49851428D01*
X62783571Y-49894285D01*
X62697857Y-49937142D01*
X62526428Y-49937142D01*
X62440714Y-49894285D01*
X62397857Y-49851428D01*
X62355000Y-49765714D01*
X62355000Y-49594285D01*
X62397857Y-49508571D01*
X62440714Y-49465714D01*
X62526428Y-49422857D01*
X61369285Y-49037142D02*
X61155000Y-49937142D01*
X60983571Y-49294285D01*
X60812142Y-49937142D01*
X60597857Y-49037142D01*
X60255000Y-49937142D02*
X60255000Y-49337142D01*
X60255000Y-49037142D02*
X60297857Y-49080000D01*
X60255000Y-49122857D01*
X60212142Y-49080000D01*
X60255000Y-49037142D01*
X60255000Y-49122857D01*
X59697857Y-49937142D02*
X59783571Y-49894285D01*
X59826428Y-49808571D01*
X59826428Y-49037142D01*
X59226428Y-49937142D02*
X59312142Y-49894285D01*
X59355000Y-49808571D01*
X59355000Y-49037142D01*
X58540714Y-49894285D02*
X58626428Y-49937142D01*
X58797857Y-49937142D01*
X58883571Y-49894285D01*
X58926428Y-49808571D01*
X58926428Y-49465714D01*
X58883571Y-49380000D01*
X58797857Y-49337142D01*
X58626428Y-49337142D01*
X58540714Y-49380000D01*
X58497857Y-49465714D01*
X58497857Y-49551428D01*
X58926428Y-49637142D01*
X58112142Y-49937142D02*
X58112142Y-49337142D01*
X58112142Y-49422857D02*
X58069285Y-49380000D01*
X57983571Y-49337142D01*
X57855000Y-49337142D01*
X57769285Y-49380000D01*
X57726428Y-49465714D01*
X57726428Y-49937142D01*
X57726428Y-49465714D02*
X57683571Y-49380000D01*
X57597857Y-49337142D01*
X57469285Y-49337142D01*
X57383571Y-49380000D01*
X57340714Y-49465714D01*
X57340714Y-49937142D01*
X56269285Y-49680000D02*
X55840714Y-49680000D01*
X56355000Y-49937142D02*
X56055000Y-49037142D01*
X55755000Y-49937142D01*
X55069285Y-49937142D02*
X55069285Y-49465714D01*
X55112142Y-49380000D01*
X55197857Y-49337142D01*
X55369285Y-49337142D01*
X55455000Y-49380000D01*
X55069285Y-49894285D02*
X55155000Y-49937142D01*
X55369285Y-49937142D01*
X55455000Y-49894285D01*
X55497857Y-49808571D01*
X55497857Y-49722857D01*
X55455000Y-49637142D01*
X55369285Y-49594285D01*
X55155000Y-49594285D01*
X55069285Y-49551428D01*
X54640714Y-49337142D02*
X54640714Y-49937142D01*
X54640714Y-49422857D02*
X54597857Y-49380000D01*
X54512142Y-49337142D01*
X54383571Y-49337142D01*
X54297857Y-49380000D01*
X54255000Y-49465714D01*
X54255000Y-49937142D01*
X53440714Y-49937142D02*
X53440714Y-49037142D01*
X53440714Y-49894285D02*
X53526428Y-49937142D01*
X53697857Y-49937142D01*
X53783571Y-49894285D01*
X53826428Y-49851428D01*
X53869285Y-49765714D01*
X53869285Y-49508571D01*
X53826428Y-49422857D01*
X53783571Y-49380000D01*
X53697857Y-49337142D01*
X53526428Y-49337142D01*
X53440714Y-49380000D01*
X52669285Y-49894285D02*
X52755000Y-49937142D01*
X52926428Y-49937142D01*
X53012142Y-49894285D01*
X53055000Y-49808571D01*
X53055000Y-49465714D01*
X53012142Y-49380000D01*
X52926428Y-49337142D01*
X52755000Y-49337142D01*
X52669285Y-49380000D01*
X52626428Y-49465714D01*
X52626428Y-49551428D01*
X53055000Y-49637142D01*
X52326428Y-49337142D02*
X52155000Y-49937142D01*
X51983571Y-49508571D01*
X51812142Y-49937142D01*
X51640714Y-49337142D01*
X51297857Y-49937142D02*
X51297857Y-49337142D01*
X51297857Y-49037142D02*
X51340714Y-49080000D01*
X51297857Y-49122857D01*
X51255000Y-49080000D01*
X51297857Y-49037142D01*
X51297857Y-49122857D01*
X50526428Y-49894285D02*
X50612142Y-49937142D01*
X50783571Y-49937142D01*
X50869285Y-49894285D01*
X50912142Y-49808571D01*
X50912142Y-49465714D01*
X50869285Y-49380000D01*
X50783571Y-49337142D01*
X50612142Y-49337142D01*
X50526428Y-49380000D01*
X50483571Y-49465714D01*
X50483571Y-49551428D01*
X50912142Y-49637142D01*
X49969285Y-49937142D02*
X50055000Y-49894285D01*
X50097857Y-49808571D01*
X50097857Y-49037142D01*
M02*
