G04 #@! TF.GenerationSoftware,KiCad,Pcbnew,(5.0.0-3-g5ebb6b6)*
G04 #@! TF.CreationDate,2018-11-13T12:47:17+01:00*
G04 #@! TF.ProjectId,DSMRlogger_v3,44534D526C6F676765725F76332E6B69,rev?*
G04 #@! TF.SameCoordinates,Original*
G04 #@! TF.FileFunction,Legend,Top*
G04 #@! TF.FilePolarity,Positive*
%FSLAX46Y46*%
G04 Gerber Fmt 4.6, Leading zero omitted, Abs format (unit mm)*
G04 Created by KiCad (PCBNEW (5.0.0-3-g5ebb6b6)) date Tuesday, 13 November 2018 at 12:47:17*
%MOMM*%
%LPD*%
G01*
G04 APERTURE LIST*
%ADD10C,0.300000*%
%ADD11C,0.250000*%
%ADD12C,0.200000*%
%ADD13C,0.120000*%
%ADD14C,0.254000*%
%ADD15C,0.152400*%
%ADD16C,0.100000*%
%ADD17C,0.150000*%
G04 APERTURE END LIST*
D10*
X55547142Y-39262857D02*
X56047142Y-39262857D01*
X56261428Y-40048571D02*
X55547142Y-40048571D01*
X55547142Y-38548571D01*
X56261428Y-38548571D01*
X56832857Y-39977142D02*
X57047142Y-40048571D01*
X57404285Y-40048571D01*
X57547142Y-39977142D01*
X57618571Y-39905714D01*
X57690000Y-39762857D01*
X57690000Y-39620000D01*
X57618571Y-39477142D01*
X57547142Y-39405714D01*
X57404285Y-39334285D01*
X57118571Y-39262857D01*
X56975714Y-39191428D01*
X56904285Y-39120000D01*
X56832857Y-38977142D01*
X56832857Y-38834285D01*
X56904285Y-38691428D01*
X56975714Y-38620000D01*
X57118571Y-38548571D01*
X57475714Y-38548571D01*
X57690000Y-38620000D01*
X58332857Y-40048571D02*
X58332857Y-38548571D01*
X58904285Y-38548571D01*
X59047142Y-38620000D01*
X59118571Y-38691428D01*
X59190000Y-38834285D01*
X59190000Y-39048571D01*
X59118571Y-39191428D01*
X59047142Y-39262857D01*
X58904285Y-39334285D01*
X58332857Y-39334285D01*
X59832857Y-39477142D02*
X60975714Y-39477142D01*
X61975714Y-38548571D02*
X62118571Y-38548571D01*
X62261428Y-38620000D01*
X62332857Y-38691428D01*
X62404285Y-38834285D01*
X62475714Y-39120000D01*
X62475714Y-39477142D01*
X62404285Y-39762857D01*
X62332857Y-39905714D01*
X62261428Y-39977142D01*
X62118571Y-40048571D01*
X61975714Y-40048571D01*
X61832857Y-39977142D01*
X61761428Y-39905714D01*
X61690000Y-39762857D01*
X61618571Y-39477142D01*
X61618571Y-39120000D01*
X61690000Y-38834285D01*
X61761428Y-38691428D01*
X61832857Y-38620000D01*
X61975714Y-38548571D01*
X63904285Y-40048571D02*
X63047142Y-40048571D01*
X63475714Y-40048571D02*
X63475714Y-38548571D01*
X63332857Y-38762857D01*
X63190000Y-38905714D01*
X63047142Y-38977142D01*
D11*
X40441666Y-35370714D02*
X40489285Y-35323095D01*
X40632142Y-35227857D01*
X40727380Y-35180238D01*
X40870238Y-35132619D01*
X41108333Y-35085000D01*
X41298809Y-35085000D01*
X41536904Y-35132619D01*
X41679761Y-35180238D01*
X41775000Y-35227857D01*
X41917857Y-35323095D01*
X41965476Y-35370714D01*
X40870238Y-36180238D02*
X40822619Y-36085000D01*
X40822619Y-35894523D01*
X40870238Y-35799285D01*
X40917857Y-35751666D01*
X41013095Y-35704047D01*
X41298809Y-35704047D01*
X41394047Y-35751666D01*
X41441666Y-35799285D01*
X41489285Y-35894523D01*
X41489285Y-36085000D01*
X41441666Y-36180238D01*
X40441666Y-36513571D02*
X40489285Y-36561190D01*
X40632142Y-36656428D01*
X40727380Y-36704047D01*
X40870238Y-36751666D01*
X41108333Y-36799285D01*
X41298809Y-36799285D01*
X41536904Y-36751666D01*
X41679761Y-36704047D01*
X41775000Y-36656428D01*
X41917857Y-36561190D01*
X41965476Y-36513571D01*
X41727380Y-37989761D02*
X41775000Y-38037380D01*
X41822619Y-38132619D01*
X41822619Y-38370714D01*
X41775000Y-38465952D01*
X41727380Y-38513571D01*
X41632142Y-38561190D01*
X41536904Y-38561190D01*
X41394047Y-38513571D01*
X40822619Y-37942142D01*
X40822619Y-38561190D01*
X41822619Y-39180238D02*
X41822619Y-39275476D01*
X41775000Y-39370714D01*
X41727380Y-39418333D01*
X41632142Y-39465952D01*
X41441666Y-39513571D01*
X41203571Y-39513571D01*
X41013095Y-39465952D01*
X40917857Y-39418333D01*
X40870238Y-39370714D01*
X40822619Y-39275476D01*
X40822619Y-39180238D01*
X40870238Y-39085000D01*
X40917857Y-39037380D01*
X41013095Y-38989761D01*
X41203571Y-38942142D01*
X41441666Y-38942142D01*
X41632142Y-38989761D01*
X41727380Y-39037380D01*
X41775000Y-39085000D01*
X41822619Y-39180238D01*
X40822619Y-40465952D02*
X40822619Y-39894523D01*
X40822619Y-40180238D02*
X41822619Y-40180238D01*
X41679761Y-40085000D01*
X41584523Y-39989761D01*
X41536904Y-39894523D01*
X41394047Y-41037380D02*
X41441666Y-40942142D01*
X41489285Y-40894523D01*
X41584523Y-40846904D01*
X41632142Y-40846904D01*
X41727380Y-40894523D01*
X41775000Y-40942142D01*
X41822619Y-41037380D01*
X41822619Y-41227857D01*
X41775000Y-41323095D01*
X41727380Y-41370714D01*
X41632142Y-41418333D01*
X41584523Y-41418333D01*
X41489285Y-41370714D01*
X41441666Y-41323095D01*
X41394047Y-41227857D01*
X41394047Y-41037380D01*
X41346428Y-40942142D01*
X41298809Y-40894523D01*
X41203571Y-40846904D01*
X41013095Y-40846904D01*
X40917857Y-40894523D01*
X40870238Y-40942142D01*
X40822619Y-41037380D01*
X40822619Y-41227857D01*
X40870238Y-41323095D01*
X40917857Y-41370714D01*
X41013095Y-41418333D01*
X41203571Y-41418333D01*
X41298809Y-41370714D01*
X41346428Y-41323095D01*
X41394047Y-41227857D01*
X41822619Y-42513571D02*
X40822619Y-42751666D01*
X41536904Y-42942142D01*
X40822619Y-43132619D01*
X41822619Y-43370714D01*
X40822619Y-43751666D02*
X41489285Y-43751666D01*
X41822619Y-43751666D02*
X41775000Y-43704047D01*
X41727380Y-43751666D01*
X41775000Y-43799285D01*
X41822619Y-43751666D01*
X41727380Y-43751666D01*
X40822619Y-44370714D02*
X40870238Y-44275476D01*
X40965476Y-44227857D01*
X41822619Y-44227857D01*
X40822619Y-44894523D02*
X40870238Y-44799285D01*
X40965476Y-44751666D01*
X41822619Y-44751666D01*
X40870238Y-45656428D02*
X40822619Y-45561190D01*
X40822619Y-45370714D01*
X40870238Y-45275476D01*
X40965476Y-45227857D01*
X41346428Y-45227857D01*
X41441666Y-45275476D01*
X41489285Y-45370714D01*
X41489285Y-45561190D01*
X41441666Y-45656428D01*
X41346428Y-45704047D01*
X41251190Y-45704047D01*
X41155952Y-45227857D01*
X40822619Y-46132619D02*
X41489285Y-46132619D01*
X41394047Y-46132619D02*
X41441666Y-46180238D01*
X41489285Y-46275476D01*
X41489285Y-46418333D01*
X41441666Y-46513571D01*
X41346428Y-46561190D01*
X40822619Y-46561190D01*
X41346428Y-46561190D02*
X41441666Y-46608809D01*
X41489285Y-46704047D01*
X41489285Y-46846904D01*
X41441666Y-46942142D01*
X41346428Y-46989761D01*
X40822619Y-46989761D01*
X41108333Y-48180238D02*
X41108333Y-48656428D01*
X40822619Y-48085000D02*
X41822619Y-48418333D01*
X40822619Y-48751666D01*
X40822619Y-49513571D02*
X41346428Y-49513571D01*
X41441666Y-49465952D01*
X41489285Y-49370714D01*
X41489285Y-49180238D01*
X41441666Y-49085000D01*
X40870238Y-49513571D02*
X40822619Y-49418333D01*
X40822619Y-49180238D01*
X40870238Y-49085000D01*
X40965476Y-49037380D01*
X41060714Y-49037380D01*
X41155952Y-49085000D01*
X41203571Y-49180238D01*
X41203571Y-49418333D01*
X41251190Y-49513571D01*
X41489285Y-49989761D02*
X40822619Y-49989761D01*
X41394047Y-49989761D02*
X41441666Y-50037380D01*
X41489285Y-50132619D01*
X41489285Y-50275476D01*
X41441666Y-50370714D01*
X41346428Y-50418333D01*
X40822619Y-50418333D01*
X40822619Y-51323095D02*
X41822619Y-51323095D01*
X40870238Y-51323095D02*
X40822619Y-51227857D01*
X40822619Y-51037380D01*
X40870238Y-50942142D01*
X40917857Y-50894523D01*
X41013095Y-50846904D01*
X41298809Y-50846904D01*
X41394047Y-50894523D01*
X41441666Y-50942142D01*
X41489285Y-51037380D01*
X41489285Y-51227857D01*
X41441666Y-51323095D01*
X40870238Y-52180238D02*
X40822619Y-52085000D01*
X40822619Y-51894523D01*
X40870238Y-51799285D01*
X40965476Y-51751666D01*
X41346428Y-51751666D01*
X41441666Y-51799285D01*
X41489285Y-51894523D01*
X41489285Y-52085000D01*
X41441666Y-52180238D01*
X41346428Y-52227857D01*
X41251190Y-52227857D01*
X41155952Y-51751666D01*
X41489285Y-52561190D02*
X40822619Y-52751666D01*
X41298809Y-52942142D01*
X40822619Y-53132619D01*
X41489285Y-53323095D01*
X40822619Y-53704047D02*
X41489285Y-53704047D01*
X41822619Y-53704047D02*
X41775000Y-53656428D01*
X41727380Y-53704047D01*
X41775000Y-53751666D01*
X41822619Y-53704047D01*
X41727380Y-53704047D01*
X40870238Y-54561190D02*
X40822619Y-54465952D01*
X40822619Y-54275476D01*
X40870238Y-54180238D01*
X40965476Y-54132619D01*
X41346428Y-54132619D01*
X41441666Y-54180238D01*
X41489285Y-54275476D01*
X41489285Y-54465952D01*
X41441666Y-54561190D01*
X41346428Y-54608809D01*
X41251190Y-54608809D01*
X41155952Y-54132619D01*
X40822619Y-55180238D02*
X40870238Y-55085000D01*
X40965476Y-55037380D01*
X41822619Y-55037380D01*
D12*
X40005000Y-28575000D02*
X40005000Y-73025000D01*
D11*
X58428095Y-66127380D02*
X58999523Y-66127380D01*
X58713809Y-67127380D02*
X58713809Y-66127380D01*
X59237619Y-66127380D02*
X59904285Y-67127380D01*
X59904285Y-66127380D02*
X59237619Y-67127380D01*
X60285238Y-67127380D02*
X60285238Y-66127380D01*
X60523333Y-66127380D01*
X60666190Y-66175000D01*
X60761428Y-66270238D01*
X60809047Y-66365476D01*
X60856666Y-66555952D01*
X60856666Y-66698809D01*
X60809047Y-66889285D01*
X60761428Y-66984523D01*
X60666190Y-67079761D01*
X60523333Y-67127380D01*
X60285238Y-67127380D01*
X53848095Y-69350000D02*
X53752857Y-69302380D01*
X53610000Y-69302380D01*
X53467142Y-69350000D01*
X53371904Y-69445238D01*
X53324285Y-69540476D01*
X53276666Y-69730952D01*
X53276666Y-69873809D01*
X53324285Y-70064285D01*
X53371904Y-70159523D01*
X53467142Y-70254761D01*
X53610000Y-70302380D01*
X53705238Y-70302380D01*
X53848095Y-70254761D01*
X53895714Y-70207142D01*
X53895714Y-69873809D01*
X53705238Y-69873809D01*
X54324285Y-70302380D02*
X54324285Y-69302380D01*
X54895714Y-70302380D01*
X54895714Y-69302380D01*
X55371904Y-70302380D02*
X55371904Y-69302380D01*
X55610000Y-69302380D01*
X55752857Y-69350000D01*
X55848095Y-69445238D01*
X55895714Y-69540476D01*
X55943333Y-69730952D01*
X55943333Y-69873809D01*
X55895714Y-70064285D01*
X55848095Y-70159523D01*
X55752857Y-70254761D01*
X55610000Y-70302380D01*
X55371904Y-70302380D01*
X53848095Y-69350000D02*
X53752857Y-69302380D01*
X53610000Y-69302380D01*
X53467142Y-69350000D01*
X53371904Y-69445238D01*
X53324285Y-69540476D01*
X53276666Y-69730952D01*
X53276666Y-69873809D01*
X53324285Y-70064285D01*
X53371904Y-70159523D01*
X53467142Y-70254761D01*
X53610000Y-70302380D01*
X53705238Y-70302380D01*
X53848095Y-70254761D01*
X53895714Y-70207142D01*
X53895714Y-69873809D01*
X53705238Y-69873809D01*
X54324285Y-70302380D02*
X54324285Y-69302380D01*
X54895714Y-70302380D01*
X54895714Y-69302380D01*
X55371904Y-70302380D02*
X55371904Y-69302380D01*
X55610000Y-69302380D01*
X55752857Y-69350000D01*
X55848095Y-69445238D01*
X55895714Y-69540476D01*
X55943333Y-69730952D01*
X55943333Y-69873809D01*
X55895714Y-70064285D01*
X55848095Y-70159523D01*
X55752857Y-70254761D01*
X55610000Y-70302380D01*
X55371904Y-70302380D01*
X50887380Y-63317380D02*
X50554047Y-62841190D01*
X50315952Y-63317380D02*
X50315952Y-62317380D01*
X50696904Y-62317380D01*
X50792142Y-62365000D01*
X50839761Y-62412619D01*
X50887380Y-62507857D01*
X50887380Y-62650714D01*
X50839761Y-62745952D01*
X50792142Y-62793571D01*
X50696904Y-62841190D01*
X50315952Y-62841190D01*
X51173095Y-62317380D02*
X51744523Y-62317380D01*
X51458809Y-63317380D02*
X51458809Y-62317380D01*
X52030238Y-63269761D02*
X52173095Y-63317380D01*
X52411190Y-63317380D01*
X52506428Y-63269761D01*
X52554047Y-63222142D01*
X52601666Y-63126904D01*
X52601666Y-63031666D01*
X52554047Y-62936428D01*
X52506428Y-62888809D01*
X52411190Y-62841190D01*
X52220714Y-62793571D01*
X52125476Y-62745952D01*
X52077857Y-62698333D01*
X52030238Y-62603095D01*
X52030238Y-62507857D01*
X52077857Y-62412619D01*
X52125476Y-62365000D01*
X52220714Y-62317380D01*
X52458809Y-62317380D01*
X52601666Y-62365000D01*
X52784523Y-60412380D02*
X52308333Y-60412380D01*
X52260714Y-60888571D01*
X52308333Y-60840952D01*
X52403571Y-60793333D01*
X52641666Y-60793333D01*
X52736904Y-60840952D01*
X52784523Y-60888571D01*
X52832142Y-60983809D01*
X52832142Y-61221904D01*
X52784523Y-61317142D01*
X52736904Y-61364761D01*
X52641666Y-61412380D01*
X52403571Y-61412380D01*
X52308333Y-61364761D01*
X52260714Y-61317142D01*
X53117857Y-60412380D02*
X53451190Y-61412380D01*
X53784523Y-60412380D01*
X54260714Y-61412380D02*
X54165476Y-61364761D01*
X54117857Y-61317142D01*
X54070238Y-61221904D01*
X54070238Y-60936190D01*
X54117857Y-60840952D01*
X54165476Y-60793333D01*
X54260714Y-60745714D01*
X54403571Y-60745714D01*
X54498809Y-60793333D01*
X54546428Y-60840952D01*
X54594047Y-60936190D01*
X54594047Y-61221904D01*
X54546428Y-61317142D01*
X54498809Y-61364761D01*
X54403571Y-61412380D01*
X54260714Y-61412380D01*
X55165476Y-61412380D02*
X55070238Y-61364761D01*
X55022619Y-61269523D01*
X55022619Y-60412380D01*
X55403571Y-60745714D02*
X55784523Y-60745714D01*
X55546428Y-60412380D02*
X55546428Y-61269523D01*
X55594047Y-61364761D01*
X55689285Y-61412380D01*
X55784523Y-61412380D01*
D12*
X75565000Y-73025000D02*
X40005000Y-73025000D01*
X75565000Y-28575000D02*
X75565000Y-73025000D01*
X40005000Y-28575000D02*
X75565000Y-28575000D01*
D13*
G04 #@! TO.C,Q1*
X73555000Y-41965000D02*
X69955000Y-41965000D01*
X73593478Y-41976522D02*
G75*
G02X71755000Y-46415000I-1838478J-1838478D01*
G01*
X69916522Y-41976522D02*
G75*
G03X71755000Y-46415000I1838478J-1838478D01*
G01*
G04 #@! TO.C,U1*
X49960000Y-52185000D02*
X49960000Y-48335000D01*
X49950122Y-48296389D02*
G75*
G03X49960000Y-52185000I-1690122J-1948611D01*
G01*
G04 #@! TO.C,R2*
X74395000Y-53975000D02*
G75*
G03X74395000Y-53975000I-1370000J0D01*
G01*
X71655000Y-53975000D02*
X71585000Y-53975000D01*
G04 #@! TO.C,C1*
X50449775Y-44905000D02*
X50449775Y-44405000D01*
X50699775Y-44655000D02*
X50199775Y-44655000D01*
X45294000Y-43464000D02*
X45294000Y-42896000D01*
X45334000Y-43698000D02*
X45334000Y-42662000D01*
X45374000Y-43857000D02*
X45374000Y-42503000D01*
X45414000Y-43985000D02*
X45414000Y-42375000D01*
X45454000Y-44095000D02*
X45454000Y-42265000D01*
X45494000Y-44191000D02*
X45494000Y-42169000D01*
X45534000Y-44278000D02*
X45534000Y-42082000D01*
X45574000Y-44358000D02*
X45574000Y-42002000D01*
X45614000Y-44431000D02*
X45614000Y-41929000D01*
X45654000Y-44499000D02*
X45654000Y-41861000D01*
X45694000Y-44563000D02*
X45694000Y-41797000D01*
X45734000Y-44623000D02*
X45734000Y-41737000D01*
X45774000Y-44680000D02*
X45774000Y-41680000D01*
X45814000Y-44734000D02*
X45814000Y-41626000D01*
X45854000Y-44785000D02*
X45854000Y-41575000D01*
X45894000Y-42140000D02*
X45894000Y-41527000D01*
X45894000Y-44833000D02*
X45894000Y-44220000D01*
X45934000Y-42140000D02*
X45934000Y-41481000D01*
X45934000Y-44879000D02*
X45934000Y-44220000D01*
X45974000Y-42140000D02*
X45974000Y-41437000D01*
X45974000Y-44923000D02*
X45974000Y-44220000D01*
X46014000Y-42140000D02*
X46014000Y-41395000D01*
X46014000Y-44965000D02*
X46014000Y-44220000D01*
X46054000Y-42140000D02*
X46054000Y-41354000D01*
X46054000Y-45006000D02*
X46054000Y-44220000D01*
X46094000Y-42140000D02*
X46094000Y-41316000D01*
X46094000Y-45044000D02*
X46094000Y-44220000D01*
X46134000Y-42140000D02*
X46134000Y-41279000D01*
X46134000Y-45081000D02*
X46134000Y-44220000D01*
X46174000Y-42140000D02*
X46174000Y-41243000D01*
X46174000Y-45117000D02*
X46174000Y-44220000D01*
X46214000Y-42140000D02*
X46214000Y-41209000D01*
X46214000Y-45151000D02*
X46214000Y-44220000D01*
X46254000Y-42140000D02*
X46254000Y-41176000D01*
X46254000Y-45184000D02*
X46254000Y-44220000D01*
X46294000Y-42140000D02*
X46294000Y-41145000D01*
X46294000Y-45215000D02*
X46294000Y-44220000D01*
X46334000Y-42140000D02*
X46334000Y-41115000D01*
X46334000Y-45245000D02*
X46334000Y-44220000D01*
X46374000Y-42140000D02*
X46374000Y-41085000D01*
X46374000Y-45275000D02*
X46374000Y-44220000D01*
X46414000Y-42140000D02*
X46414000Y-41058000D01*
X46414000Y-45302000D02*
X46414000Y-44220000D01*
X46454000Y-42140000D02*
X46454000Y-41031000D01*
X46454000Y-45329000D02*
X46454000Y-44220000D01*
X46494000Y-42140000D02*
X46494000Y-41005000D01*
X46494000Y-45355000D02*
X46494000Y-44220000D01*
X46534000Y-42140000D02*
X46534000Y-40980000D01*
X46534000Y-45380000D02*
X46534000Y-44220000D01*
X46574000Y-42140000D02*
X46574000Y-40956000D01*
X46574000Y-45404000D02*
X46574000Y-44220000D01*
X46614000Y-42140000D02*
X46614000Y-40933000D01*
X46614000Y-45427000D02*
X46614000Y-44220000D01*
X46654000Y-42140000D02*
X46654000Y-40912000D01*
X46654000Y-45448000D02*
X46654000Y-44220000D01*
X46694000Y-42140000D02*
X46694000Y-40890000D01*
X46694000Y-45470000D02*
X46694000Y-44220000D01*
X46734000Y-42140000D02*
X46734000Y-40870000D01*
X46734000Y-45490000D02*
X46734000Y-44220000D01*
X46774000Y-42140000D02*
X46774000Y-40851000D01*
X46774000Y-45509000D02*
X46774000Y-44220000D01*
X46814000Y-42140000D02*
X46814000Y-40832000D01*
X46814000Y-45528000D02*
X46814000Y-44220000D01*
X46854000Y-42140000D02*
X46854000Y-40815000D01*
X46854000Y-45545000D02*
X46854000Y-44220000D01*
X46894000Y-42140000D02*
X46894000Y-40798000D01*
X46894000Y-45562000D02*
X46894000Y-44220000D01*
X46934000Y-42140000D02*
X46934000Y-40782000D01*
X46934000Y-45578000D02*
X46934000Y-44220000D01*
X46974000Y-42140000D02*
X46974000Y-40766000D01*
X46974000Y-45594000D02*
X46974000Y-44220000D01*
X47014000Y-42140000D02*
X47014000Y-40752000D01*
X47014000Y-45608000D02*
X47014000Y-44220000D01*
X47054000Y-42140000D02*
X47054000Y-40738000D01*
X47054000Y-45622000D02*
X47054000Y-44220000D01*
X47094000Y-42140000D02*
X47094000Y-40725000D01*
X47094000Y-45635000D02*
X47094000Y-44220000D01*
X47134000Y-42140000D02*
X47134000Y-40712000D01*
X47134000Y-45648000D02*
X47134000Y-44220000D01*
X47174000Y-42140000D02*
X47174000Y-40700000D01*
X47174000Y-45660000D02*
X47174000Y-44220000D01*
X47215000Y-42140000D02*
X47215000Y-40689000D01*
X47215000Y-45671000D02*
X47215000Y-44220000D01*
X47255000Y-42140000D02*
X47255000Y-40679000D01*
X47255000Y-45681000D02*
X47255000Y-44220000D01*
X47295000Y-42140000D02*
X47295000Y-40669000D01*
X47295000Y-45691000D02*
X47295000Y-44220000D01*
X47335000Y-42140000D02*
X47335000Y-40660000D01*
X47335000Y-45700000D02*
X47335000Y-44220000D01*
X47375000Y-42140000D02*
X47375000Y-40652000D01*
X47375000Y-45708000D02*
X47375000Y-44220000D01*
X47415000Y-42140000D02*
X47415000Y-40644000D01*
X47415000Y-45716000D02*
X47415000Y-44220000D01*
X47455000Y-42140000D02*
X47455000Y-40637000D01*
X47455000Y-45723000D02*
X47455000Y-44220000D01*
X47495000Y-42140000D02*
X47495000Y-40630000D01*
X47495000Y-45730000D02*
X47495000Y-44220000D01*
X47535000Y-42140000D02*
X47535000Y-40624000D01*
X47535000Y-45736000D02*
X47535000Y-44220000D01*
X47575000Y-42140000D02*
X47575000Y-40619000D01*
X47575000Y-45741000D02*
X47575000Y-44220000D01*
X47615000Y-42140000D02*
X47615000Y-40615000D01*
X47615000Y-45745000D02*
X47615000Y-44220000D01*
X47655000Y-42140000D02*
X47655000Y-40611000D01*
X47655000Y-45749000D02*
X47655000Y-44220000D01*
X47695000Y-42140000D02*
X47695000Y-40607000D01*
X47695000Y-45753000D02*
X47695000Y-44220000D01*
X47735000Y-42140000D02*
X47735000Y-40604000D01*
X47735000Y-45756000D02*
X47735000Y-44220000D01*
X47775000Y-42140000D02*
X47775000Y-40602000D01*
X47775000Y-45758000D02*
X47775000Y-44220000D01*
X47815000Y-42140000D02*
X47815000Y-40601000D01*
X47815000Y-45759000D02*
X47815000Y-44220000D01*
X47855000Y-45760000D02*
X47855000Y-44220000D01*
X47855000Y-42140000D02*
X47855000Y-40600000D01*
X47895000Y-45760000D02*
X47895000Y-44220000D01*
X47895000Y-42140000D02*
X47895000Y-40600000D01*
X50515000Y-43180000D02*
G75*
G03X50515000Y-43180000I-2620000J0D01*
G01*
G04 #@! TO.C,C2*
X68930000Y-62230000D02*
G75*
G03X68930000Y-62230000I-2620000J0D01*
G01*
X66310000Y-61190000D02*
X66310000Y-59650000D01*
X66310000Y-64810000D02*
X66310000Y-63270000D01*
X66270000Y-61190000D02*
X66270000Y-59650000D01*
X66270000Y-64810000D02*
X66270000Y-63270000D01*
X66230000Y-64809000D02*
X66230000Y-63270000D01*
X66230000Y-61190000D02*
X66230000Y-59651000D01*
X66190000Y-64808000D02*
X66190000Y-63270000D01*
X66190000Y-61190000D02*
X66190000Y-59652000D01*
X66150000Y-64806000D02*
X66150000Y-63270000D01*
X66150000Y-61190000D02*
X66150000Y-59654000D01*
X66110000Y-64803000D02*
X66110000Y-63270000D01*
X66110000Y-61190000D02*
X66110000Y-59657000D01*
X66070000Y-64799000D02*
X66070000Y-63270000D01*
X66070000Y-61190000D02*
X66070000Y-59661000D01*
X66030000Y-64795000D02*
X66030000Y-63270000D01*
X66030000Y-61190000D02*
X66030000Y-59665000D01*
X65990000Y-64791000D02*
X65990000Y-63270000D01*
X65990000Y-61190000D02*
X65990000Y-59669000D01*
X65950000Y-64786000D02*
X65950000Y-63270000D01*
X65950000Y-61190000D02*
X65950000Y-59674000D01*
X65910000Y-64780000D02*
X65910000Y-63270000D01*
X65910000Y-61190000D02*
X65910000Y-59680000D01*
X65870000Y-64773000D02*
X65870000Y-63270000D01*
X65870000Y-61190000D02*
X65870000Y-59687000D01*
X65830000Y-64766000D02*
X65830000Y-63270000D01*
X65830000Y-61190000D02*
X65830000Y-59694000D01*
X65790000Y-64758000D02*
X65790000Y-63270000D01*
X65790000Y-61190000D02*
X65790000Y-59702000D01*
X65750000Y-64750000D02*
X65750000Y-63270000D01*
X65750000Y-61190000D02*
X65750000Y-59710000D01*
X65710000Y-64741000D02*
X65710000Y-63270000D01*
X65710000Y-61190000D02*
X65710000Y-59719000D01*
X65670000Y-64731000D02*
X65670000Y-63270000D01*
X65670000Y-61190000D02*
X65670000Y-59729000D01*
X65630000Y-64721000D02*
X65630000Y-63270000D01*
X65630000Y-61190000D02*
X65630000Y-59739000D01*
X65589000Y-64710000D02*
X65589000Y-63270000D01*
X65589000Y-61190000D02*
X65589000Y-59750000D01*
X65549000Y-64698000D02*
X65549000Y-63270000D01*
X65549000Y-61190000D02*
X65549000Y-59762000D01*
X65509000Y-64685000D02*
X65509000Y-63270000D01*
X65509000Y-61190000D02*
X65509000Y-59775000D01*
X65469000Y-64672000D02*
X65469000Y-63270000D01*
X65469000Y-61190000D02*
X65469000Y-59788000D01*
X65429000Y-64658000D02*
X65429000Y-63270000D01*
X65429000Y-61190000D02*
X65429000Y-59802000D01*
X65389000Y-64644000D02*
X65389000Y-63270000D01*
X65389000Y-61190000D02*
X65389000Y-59816000D01*
X65349000Y-64628000D02*
X65349000Y-63270000D01*
X65349000Y-61190000D02*
X65349000Y-59832000D01*
X65309000Y-64612000D02*
X65309000Y-63270000D01*
X65309000Y-61190000D02*
X65309000Y-59848000D01*
X65269000Y-64595000D02*
X65269000Y-63270000D01*
X65269000Y-61190000D02*
X65269000Y-59865000D01*
X65229000Y-64578000D02*
X65229000Y-63270000D01*
X65229000Y-61190000D02*
X65229000Y-59882000D01*
X65189000Y-64559000D02*
X65189000Y-63270000D01*
X65189000Y-61190000D02*
X65189000Y-59901000D01*
X65149000Y-64540000D02*
X65149000Y-63270000D01*
X65149000Y-61190000D02*
X65149000Y-59920000D01*
X65109000Y-64520000D02*
X65109000Y-63270000D01*
X65109000Y-61190000D02*
X65109000Y-59940000D01*
X65069000Y-64498000D02*
X65069000Y-63270000D01*
X65069000Y-61190000D02*
X65069000Y-59962000D01*
X65029000Y-64477000D02*
X65029000Y-63270000D01*
X65029000Y-61190000D02*
X65029000Y-59983000D01*
X64989000Y-64454000D02*
X64989000Y-63270000D01*
X64989000Y-61190000D02*
X64989000Y-60006000D01*
X64949000Y-64430000D02*
X64949000Y-63270000D01*
X64949000Y-61190000D02*
X64949000Y-60030000D01*
X64909000Y-64405000D02*
X64909000Y-63270000D01*
X64909000Y-61190000D02*
X64909000Y-60055000D01*
X64869000Y-64379000D02*
X64869000Y-63270000D01*
X64869000Y-61190000D02*
X64869000Y-60081000D01*
X64829000Y-64352000D02*
X64829000Y-63270000D01*
X64829000Y-61190000D02*
X64829000Y-60108000D01*
X64789000Y-64325000D02*
X64789000Y-63270000D01*
X64789000Y-61190000D02*
X64789000Y-60135000D01*
X64749000Y-64295000D02*
X64749000Y-63270000D01*
X64749000Y-61190000D02*
X64749000Y-60165000D01*
X64709000Y-64265000D02*
X64709000Y-63270000D01*
X64709000Y-61190000D02*
X64709000Y-60195000D01*
X64669000Y-64234000D02*
X64669000Y-63270000D01*
X64669000Y-61190000D02*
X64669000Y-60226000D01*
X64629000Y-64201000D02*
X64629000Y-63270000D01*
X64629000Y-61190000D02*
X64629000Y-60259000D01*
X64589000Y-64167000D02*
X64589000Y-63270000D01*
X64589000Y-61190000D02*
X64589000Y-60293000D01*
X64549000Y-64131000D02*
X64549000Y-63270000D01*
X64549000Y-61190000D02*
X64549000Y-60329000D01*
X64509000Y-64094000D02*
X64509000Y-63270000D01*
X64509000Y-61190000D02*
X64509000Y-60366000D01*
X64469000Y-64056000D02*
X64469000Y-63270000D01*
X64469000Y-61190000D02*
X64469000Y-60404000D01*
X64429000Y-64015000D02*
X64429000Y-63270000D01*
X64429000Y-61190000D02*
X64429000Y-60445000D01*
X64389000Y-63973000D02*
X64389000Y-63270000D01*
X64389000Y-61190000D02*
X64389000Y-60487000D01*
X64349000Y-63929000D02*
X64349000Y-63270000D01*
X64349000Y-61190000D02*
X64349000Y-60531000D01*
X64309000Y-63883000D02*
X64309000Y-63270000D01*
X64309000Y-61190000D02*
X64309000Y-60577000D01*
X64269000Y-63835000D02*
X64269000Y-60625000D01*
X64229000Y-63784000D02*
X64229000Y-60676000D01*
X64189000Y-63730000D02*
X64189000Y-60730000D01*
X64149000Y-63673000D02*
X64149000Y-60787000D01*
X64109000Y-63613000D02*
X64109000Y-60847000D01*
X64069000Y-63549000D02*
X64069000Y-60911000D01*
X64029000Y-63481000D02*
X64029000Y-60979000D01*
X63989000Y-63408000D02*
X63989000Y-61052000D01*
X63949000Y-63328000D02*
X63949000Y-61132000D01*
X63909000Y-63241000D02*
X63909000Y-61219000D01*
X63869000Y-63145000D02*
X63869000Y-61315000D01*
X63829000Y-63035000D02*
X63829000Y-61425000D01*
X63789000Y-62907000D02*
X63789000Y-61553000D01*
X63749000Y-62748000D02*
X63749000Y-61712000D01*
X63709000Y-62514000D02*
X63709000Y-61946000D01*
X69114775Y-63705000D02*
X68614775Y-63705000D01*
X68864775Y-63955000D02*
X68864775Y-63455000D01*
G04 #@! TO.C,C3*
X50515000Y-34290000D02*
G75*
G03X50515000Y-34290000I-2620000J0D01*
G01*
X47895000Y-33250000D02*
X47895000Y-31710000D01*
X47895000Y-36870000D02*
X47895000Y-35330000D01*
X47855000Y-33250000D02*
X47855000Y-31710000D01*
X47855000Y-36870000D02*
X47855000Y-35330000D01*
X47815000Y-36869000D02*
X47815000Y-35330000D01*
X47815000Y-33250000D02*
X47815000Y-31711000D01*
X47775000Y-36868000D02*
X47775000Y-35330000D01*
X47775000Y-33250000D02*
X47775000Y-31712000D01*
X47735000Y-36866000D02*
X47735000Y-35330000D01*
X47735000Y-33250000D02*
X47735000Y-31714000D01*
X47695000Y-36863000D02*
X47695000Y-35330000D01*
X47695000Y-33250000D02*
X47695000Y-31717000D01*
X47655000Y-36859000D02*
X47655000Y-35330000D01*
X47655000Y-33250000D02*
X47655000Y-31721000D01*
X47615000Y-36855000D02*
X47615000Y-35330000D01*
X47615000Y-33250000D02*
X47615000Y-31725000D01*
X47575000Y-36851000D02*
X47575000Y-35330000D01*
X47575000Y-33250000D02*
X47575000Y-31729000D01*
X47535000Y-36846000D02*
X47535000Y-35330000D01*
X47535000Y-33250000D02*
X47535000Y-31734000D01*
X47495000Y-36840000D02*
X47495000Y-35330000D01*
X47495000Y-33250000D02*
X47495000Y-31740000D01*
X47455000Y-36833000D02*
X47455000Y-35330000D01*
X47455000Y-33250000D02*
X47455000Y-31747000D01*
X47415000Y-36826000D02*
X47415000Y-35330000D01*
X47415000Y-33250000D02*
X47415000Y-31754000D01*
X47375000Y-36818000D02*
X47375000Y-35330000D01*
X47375000Y-33250000D02*
X47375000Y-31762000D01*
X47335000Y-36810000D02*
X47335000Y-35330000D01*
X47335000Y-33250000D02*
X47335000Y-31770000D01*
X47295000Y-36801000D02*
X47295000Y-35330000D01*
X47295000Y-33250000D02*
X47295000Y-31779000D01*
X47255000Y-36791000D02*
X47255000Y-35330000D01*
X47255000Y-33250000D02*
X47255000Y-31789000D01*
X47215000Y-36781000D02*
X47215000Y-35330000D01*
X47215000Y-33250000D02*
X47215000Y-31799000D01*
X47174000Y-36770000D02*
X47174000Y-35330000D01*
X47174000Y-33250000D02*
X47174000Y-31810000D01*
X47134000Y-36758000D02*
X47134000Y-35330000D01*
X47134000Y-33250000D02*
X47134000Y-31822000D01*
X47094000Y-36745000D02*
X47094000Y-35330000D01*
X47094000Y-33250000D02*
X47094000Y-31835000D01*
X47054000Y-36732000D02*
X47054000Y-35330000D01*
X47054000Y-33250000D02*
X47054000Y-31848000D01*
X47014000Y-36718000D02*
X47014000Y-35330000D01*
X47014000Y-33250000D02*
X47014000Y-31862000D01*
X46974000Y-36704000D02*
X46974000Y-35330000D01*
X46974000Y-33250000D02*
X46974000Y-31876000D01*
X46934000Y-36688000D02*
X46934000Y-35330000D01*
X46934000Y-33250000D02*
X46934000Y-31892000D01*
X46894000Y-36672000D02*
X46894000Y-35330000D01*
X46894000Y-33250000D02*
X46894000Y-31908000D01*
X46854000Y-36655000D02*
X46854000Y-35330000D01*
X46854000Y-33250000D02*
X46854000Y-31925000D01*
X46814000Y-36638000D02*
X46814000Y-35330000D01*
X46814000Y-33250000D02*
X46814000Y-31942000D01*
X46774000Y-36619000D02*
X46774000Y-35330000D01*
X46774000Y-33250000D02*
X46774000Y-31961000D01*
X46734000Y-36600000D02*
X46734000Y-35330000D01*
X46734000Y-33250000D02*
X46734000Y-31980000D01*
X46694000Y-36580000D02*
X46694000Y-35330000D01*
X46694000Y-33250000D02*
X46694000Y-32000000D01*
X46654000Y-36558000D02*
X46654000Y-35330000D01*
X46654000Y-33250000D02*
X46654000Y-32022000D01*
X46614000Y-36537000D02*
X46614000Y-35330000D01*
X46614000Y-33250000D02*
X46614000Y-32043000D01*
X46574000Y-36514000D02*
X46574000Y-35330000D01*
X46574000Y-33250000D02*
X46574000Y-32066000D01*
X46534000Y-36490000D02*
X46534000Y-35330000D01*
X46534000Y-33250000D02*
X46534000Y-32090000D01*
X46494000Y-36465000D02*
X46494000Y-35330000D01*
X46494000Y-33250000D02*
X46494000Y-32115000D01*
X46454000Y-36439000D02*
X46454000Y-35330000D01*
X46454000Y-33250000D02*
X46454000Y-32141000D01*
X46414000Y-36412000D02*
X46414000Y-35330000D01*
X46414000Y-33250000D02*
X46414000Y-32168000D01*
X46374000Y-36385000D02*
X46374000Y-35330000D01*
X46374000Y-33250000D02*
X46374000Y-32195000D01*
X46334000Y-36355000D02*
X46334000Y-35330000D01*
X46334000Y-33250000D02*
X46334000Y-32225000D01*
X46294000Y-36325000D02*
X46294000Y-35330000D01*
X46294000Y-33250000D02*
X46294000Y-32255000D01*
X46254000Y-36294000D02*
X46254000Y-35330000D01*
X46254000Y-33250000D02*
X46254000Y-32286000D01*
X46214000Y-36261000D02*
X46214000Y-35330000D01*
X46214000Y-33250000D02*
X46214000Y-32319000D01*
X46174000Y-36227000D02*
X46174000Y-35330000D01*
X46174000Y-33250000D02*
X46174000Y-32353000D01*
X46134000Y-36191000D02*
X46134000Y-35330000D01*
X46134000Y-33250000D02*
X46134000Y-32389000D01*
X46094000Y-36154000D02*
X46094000Y-35330000D01*
X46094000Y-33250000D02*
X46094000Y-32426000D01*
X46054000Y-36116000D02*
X46054000Y-35330000D01*
X46054000Y-33250000D02*
X46054000Y-32464000D01*
X46014000Y-36075000D02*
X46014000Y-35330000D01*
X46014000Y-33250000D02*
X46014000Y-32505000D01*
X45974000Y-36033000D02*
X45974000Y-35330000D01*
X45974000Y-33250000D02*
X45974000Y-32547000D01*
X45934000Y-35989000D02*
X45934000Y-35330000D01*
X45934000Y-33250000D02*
X45934000Y-32591000D01*
X45894000Y-35943000D02*
X45894000Y-35330000D01*
X45894000Y-33250000D02*
X45894000Y-32637000D01*
X45854000Y-35895000D02*
X45854000Y-32685000D01*
X45814000Y-35844000D02*
X45814000Y-32736000D01*
X45774000Y-35790000D02*
X45774000Y-32790000D01*
X45734000Y-35733000D02*
X45734000Y-32847000D01*
X45694000Y-35673000D02*
X45694000Y-32907000D01*
X45654000Y-35609000D02*
X45654000Y-32971000D01*
X45614000Y-35541000D02*
X45614000Y-33039000D01*
X45574000Y-35468000D02*
X45574000Y-33112000D01*
X45534000Y-35388000D02*
X45534000Y-33192000D01*
X45494000Y-35301000D02*
X45494000Y-33279000D01*
X45454000Y-35205000D02*
X45454000Y-33375000D01*
X45414000Y-35095000D02*
X45414000Y-33485000D01*
X45374000Y-34967000D02*
X45374000Y-33613000D01*
X45334000Y-34808000D02*
X45334000Y-33772000D01*
X45294000Y-34574000D02*
X45294000Y-34006000D01*
X50699775Y-35765000D02*
X50199775Y-35765000D01*
X50449775Y-36015000D02*
X50449775Y-35515000D01*
G04 #@! TO.C,J2*
X54455234Y-36728601D02*
X54455234Y-34128601D01*
X54455234Y-36728601D02*
X64735234Y-36728601D01*
X64735234Y-36728601D02*
X64735234Y-31528601D01*
X57055234Y-31528601D02*
X64735234Y-31528601D01*
X57055234Y-34128601D02*
X57055234Y-31528601D01*
X54455234Y-34128601D02*
X57055234Y-34128601D01*
X54455234Y-31528601D02*
X55785234Y-31528601D01*
X54455234Y-32858601D02*
X54455234Y-31528601D01*
G04 #@! TO.C,R1*
X74395000Y-49530000D02*
G75*
G03X74395000Y-49530000I-1370000J0D01*
G01*
X71655000Y-49530000D02*
X71585000Y-49530000D01*
G04 #@! TO.C,R3*
X71655000Y-38100000D02*
X71585000Y-38100000D01*
X74395000Y-38100000D02*
G75*
G03X74395000Y-38100000I-1370000J0D01*
G01*
D14*
G04 #@! TO.C,U2*
X66707234Y-31080601D02*
X66707234Y-55718601D01*
X66707234Y-55718601D02*
X52483234Y-55718601D01*
X52483234Y-55718601D02*
X52483234Y-31080601D01*
X52483234Y-31080601D02*
X66707234Y-31080601D01*
D15*
X64675234Y-34128601D02*
X64675234Y-31588601D01*
X64675234Y-31588601D02*
X62135234Y-31588601D01*
X62135234Y-31588601D02*
X54515234Y-31588601D01*
X54515234Y-31588601D02*
X54515234Y-36668601D01*
X54515234Y-36668601D02*
X64675234Y-36668601D01*
X64675234Y-36668601D02*
X64675234Y-34128601D01*
D13*
G04 #@! TO.C,R4*
X62670234Y-50733601D02*
X65410234Y-50733601D01*
X65410234Y-50733601D02*
X65410234Y-44193601D01*
X65410234Y-44193601D02*
X62670234Y-44193601D01*
X62670234Y-44193601D02*
X62670234Y-50733601D01*
X64040234Y-51503601D02*
X64040234Y-50733601D01*
X64040234Y-43423601D02*
X64040234Y-44193601D01*
G04 #@! TO.C,R5*
X59595234Y-43423601D02*
X59595234Y-44193601D01*
X59595234Y-51503601D02*
X59595234Y-50733601D01*
X58225234Y-44193601D02*
X58225234Y-50733601D01*
X60965234Y-44193601D02*
X58225234Y-44193601D01*
X60965234Y-50733601D02*
X60965234Y-44193601D01*
X58225234Y-50733601D02*
X60965234Y-50733601D01*
G04 #@! TO.C,R6*
X53780234Y-50733601D02*
X56520234Y-50733601D01*
X56520234Y-50733601D02*
X56520234Y-44193601D01*
X56520234Y-44193601D02*
X53780234Y-44193601D01*
X53780234Y-44193601D02*
X53780234Y-50733601D01*
X55150234Y-51503601D02*
X55150234Y-50733601D01*
X55150234Y-43423601D02*
X55150234Y-44193601D01*
G04 #@! TO.C,J3*
X45066000Y-46355000D02*
G75*
G03X45066000Y-46355000I-1251000J0D01*
G01*
G04 #@! TO.C,J4*
X45066000Y-37465000D02*
G75*
G03X45066000Y-37465000I-1251000J0D01*
G01*
G04 #@! TO.C,J5*
X45066000Y-53975000D02*
G75*
G03X45066000Y-53975000I-1251000J0D01*
G01*
G04 #@! TO.C,J1*
X56380000Y-57695000D02*
X57910000Y-57695000D01*
X49360000Y-58165000D02*
X58380000Y-58165000D01*
D16*
X49430000Y-58165000D02*
X49360000Y-58165000D01*
D13*
X40380000Y-58165000D02*
X47160000Y-58165000D01*
X40380000Y-71365000D02*
X40380000Y-58165000D01*
D16*
X40390000Y-71365000D02*
X40380000Y-71365000D01*
D13*
X40380000Y-71365000D02*
X47160000Y-71365000D01*
D16*
X40500000Y-71365000D02*
X40380000Y-71365000D01*
D13*
X58380000Y-71365000D02*
X49360000Y-71365000D01*
X58380000Y-58165000D02*
X58380000Y-71365000D01*
G04 #@! TO.C,Q1*
D17*
X68492619Y-44545238D02*
X68445000Y-44640476D01*
X68349761Y-44735714D01*
X68206904Y-44878571D01*
X68159285Y-44973809D01*
X68159285Y-45069047D01*
X68397380Y-45021428D02*
X68349761Y-45116666D01*
X68254523Y-45211904D01*
X68064047Y-45259523D01*
X67730714Y-45259523D01*
X67540238Y-45211904D01*
X67445000Y-45116666D01*
X67397380Y-45021428D01*
X67397380Y-44830952D01*
X67445000Y-44735714D01*
X67540238Y-44640476D01*
X67730714Y-44592857D01*
X68064047Y-44592857D01*
X68254523Y-44640476D01*
X68349761Y-44735714D01*
X68397380Y-44830952D01*
X68397380Y-45021428D01*
X68397380Y-43640476D02*
X68397380Y-44211904D01*
X68397380Y-43926190D02*
X67397380Y-43926190D01*
X67540238Y-44021428D01*
X67635476Y-44116666D01*
X67683095Y-44211904D01*
X69897857Y-40953571D02*
X70040714Y-41001190D01*
X70088333Y-41048809D01*
X70135952Y-41144047D01*
X70135952Y-41286904D01*
X70088333Y-41382142D01*
X70040714Y-41429761D01*
X69945476Y-41477380D01*
X69564523Y-41477380D01*
X69564523Y-40477380D01*
X69897857Y-40477380D01*
X69993095Y-40525000D01*
X70040714Y-40572619D01*
X70088333Y-40667857D01*
X70088333Y-40763095D01*
X70040714Y-40858333D01*
X69993095Y-40905952D01*
X69897857Y-40953571D01*
X69564523Y-40953571D01*
X71135952Y-41382142D02*
X71088333Y-41429761D01*
X70945476Y-41477380D01*
X70850238Y-41477380D01*
X70707380Y-41429761D01*
X70612142Y-41334523D01*
X70564523Y-41239285D01*
X70516904Y-41048809D01*
X70516904Y-40905952D01*
X70564523Y-40715476D01*
X70612142Y-40620238D01*
X70707380Y-40525000D01*
X70850238Y-40477380D01*
X70945476Y-40477380D01*
X71088333Y-40525000D01*
X71135952Y-40572619D01*
X72040714Y-40477380D02*
X71564523Y-40477380D01*
X71516904Y-40953571D01*
X71564523Y-40905952D01*
X71659761Y-40858333D01*
X71897857Y-40858333D01*
X71993095Y-40905952D01*
X72040714Y-40953571D01*
X72088333Y-41048809D01*
X72088333Y-41286904D01*
X72040714Y-41382142D01*
X71993095Y-41429761D01*
X71897857Y-41477380D01*
X71659761Y-41477380D01*
X71564523Y-41429761D01*
X71516904Y-41382142D01*
X72945476Y-40810714D02*
X72945476Y-41477380D01*
X72707380Y-40429761D02*
X72469285Y-41144047D01*
X73088333Y-41144047D01*
X73374047Y-40477380D02*
X74040714Y-40477380D01*
X73612142Y-41477380D01*
G04 #@! TO.C,U1*
X46863095Y-53427380D02*
X46863095Y-54236904D01*
X46910714Y-54332142D01*
X46958333Y-54379761D01*
X47053571Y-54427380D01*
X47244047Y-54427380D01*
X47339285Y-54379761D01*
X47386904Y-54332142D01*
X47434523Y-54236904D01*
X47434523Y-53427380D01*
X48434523Y-54427380D02*
X47863095Y-54427380D01*
X48148809Y-54427380D02*
X48148809Y-53427380D01*
X48053571Y-53570238D01*
X47958333Y-53665476D01*
X47863095Y-53713095D01*
X51252380Y-55355476D02*
X50252380Y-55355476D01*
X50966666Y-55022142D01*
X50252380Y-54688809D01*
X51252380Y-54688809D01*
X51157142Y-53641190D02*
X51204761Y-53688809D01*
X51252380Y-53831666D01*
X51252380Y-53926904D01*
X51204761Y-54069761D01*
X51109523Y-54165000D01*
X51014285Y-54212619D01*
X50823809Y-54260238D01*
X50680952Y-54260238D01*
X50490476Y-54212619D01*
X50395238Y-54165000D01*
X50300000Y-54069761D01*
X50252380Y-53926904D01*
X50252380Y-53831666D01*
X50300000Y-53688809D01*
X50347619Y-53641190D01*
X51252380Y-53212619D02*
X50252380Y-53212619D01*
X50252380Y-52831666D01*
X50300000Y-52736428D01*
X50347619Y-52688809D01*
X50442857Y-52641190D01*
X50585714Y-52641190D01*
X50680952Y-52688809D01*
X50728571Y-52736428D01*
X50776190Y-52831666D01*
X50776190Y-53212619D01*
X51252380Y-51688809D02*
X51252380Y-52260238D01*
X51252380Y-51974523D02*
X50252380Y-51974523D01*
X50395238Y-52069761D01*
X50490476Y-52165000D01*
X50538095Y-52260238D01*
X50252380Y-51355476D02*
X50252380Y-50688809D01*
X51252380Y-51117380D01*
X50252380Y-50117380D02*
X50252380Y-50022142D01*
X50300000Y-49926904D01*
X50347619Y-49879285D01*
X50442857Y-49831666D01*
X50633333Y-49784047D01*
X50871428Y-49784047D01*
X51061904Y-49831666D01*
X51157142Y-49879285D01*
X51204761Y-49926904D01*
X51252380Y-50022142D01*
X51252380Y-50117380D01*
X51204761Y-50212619D01*
X51157142Y-50260238D01*
X51061904Y-50307857D01*
X50871428Y-50355476D01*
X50633333Y-50355476D01*
X50442857Y-50307857D01*
X50347619Y-50260238D01*
X50300000Y-50212619D01*
X50252380Y-50117380D01*
X50252380Y-49165000D02*
X50252380Y-49069761D01*
X50300000Y-48974523D01*
X50347619Y-48926904D01*
X50442857Y-48879285D01*
X50633333Y-48831666D01*
X50871428Y-48831666D01*
X51061904Y-48879285D01*
X51157142Y-48926904D01*
X51204761Y-48974523D01*
X51252380Y-49069761D01*
X51252380Y-49165000D01*
X51204761Y-49260238D01*
X51157142Y-49307857D01*
X51061904Y-49355476D01*
X50871428Y-49403095D01*
X50633333Y-49403095D01*
X50442857Y-49355476D01*
X50347619Y-49307857D01*
X50300000Y-49260238D01*
X50252380Y-49165000D01*
X50871428Y-48403095D02*
X50871428Y-47641190D01*
X50252380Y-47260238D02*
X50252380Y-46641190D01*
X50633333Y-46974523D01*
X50633333Y-46831666D01*
X50680952Y-46736428D01*
X50728571Y-46688809D01*
X50823809Y-46641190D01*
X51061904Y-46641190D01*
X51157142Y-46688809D01*
X51204761Y-46736428D01*
X51252380Y-46831666D01*
X51252380Y-47117380D01*
X51204761Y-47212619D01*
X51157142Y-47260238D01*
X50585714Y-46307857D02*
X51252380Y-46069761D01*
X50585714Y-45831666D01*
X50252380Y-45545952D02*
X50252380Y-44926904D01*
X50633333Y-45260238D01*
X50633333Y-45117380D01*
X50680952Y-45022142D01*
X50728571Y-44974523D01*
X50823809Y-44926904D01*
X51061904Y-44926904D01*
X51157142Y-44974523D01*
X51204761Y-45022142D01*
X51252380Y-45117380D01*
X51252380Y-45403095D01*
X51204761Y-45498333D01*
X51157142Y-45545952D01*
G04 #@! TO.C,R2*
X73493333Y-52522380D02*
X73160000Y-52046190D01*
X72921904Y-52522380D02*
X72921904Y-51522380D01*
X73302857Y-51522380D01*
X73398095Y-51570000D01*
X73445714Y-51617619D01*
X73493333Y-51712857D01*
X73493333Y-51855714D01*
X73445714Y-51950952D01*
X73398095Y-51998571D01*
X73302857Y-52046190D01*
X72921904Y-52046190D01*
X73874285Y-51617619D02*
X73921904Y-51570000D01*
X74017142Y-51522380D01*
X74255238Y-51522380D01*
X74350476Y-51570000D01*
X74398095Y-51617619D01*
X74445714Y-51712857D01*
X74445714Y-51808095D01*
X74398095Y-51950952D01*
X73826666Y-52522380D01*
X74445714Y-52522380D01*
X69080238Y-51617619D02*
X69127857Y-51570000D01*
X69223095Y-51522380D01*
X69461190Y-51522380D01*
X69556428Y-51570000D01*
X69604047Y-51617619D01*
X69651666Y-51712857D01*
X69651666Y-51808095D01*
X69604047Y-51950952D01*
X69032619Y-52522380D01*
X69651666Y-52522380D01*
X70080238Y-52427142D02*
X70127857Y-52474761D01*
X70080238Y-52522380D01*
X70032619Y-52474761D01*
X70080238Y-52427142D01*
X70080238Y-52522380D01*
X70508809Y-51617619D02*
X70556428Y-51570000D01*
X70651666Y-51522380D01*
X70889761Y-51522380D01*
X70985000Y-51570000D01*
X71032619Y-51617619D01*
X71080238Y-51712857D01*
X71080238Y-51808095D01*
X71032619Y-51950952D01*
X70461190Y-52522380D01*
X71080238Y-52522380D01*
X71508809Y-52522380D02*
X71508809Y-51522380D01*
X71604047Y-52141428D02*
X71889761Y-52522380D01*
X71889761Y-51855714D02*
X71508809Y-52236666D01*
G04 #@! TO.C,C1*
X49998333Y-40362142D02*
X49950714Y-40409761D01*
X49807857Y-40457380D01*
X49712619Y-40457380D01*
X49569761Y-40409761D01*
X49474523Y-40314523D01*
X49426904Y-40219285D01*
X49379285Y-40028809D01*
X49379285Y-39885952D01*
X49426904Y-39695476D01*
X49474523Y-39600238D01*
X49569761Y-39505000D01*
X49712619Y-39457380D01*
X49807857Y-39457380D01*
X49950714Y-39505000D01*
X49998333Y-39552619D01*
X50950714Y-40457380D02*
X50379285Y-40457380D01*
X50665000Y-40457380D02*
X50665000Y-39457380D01*
X50569761Y-39600238D01*
X50474523Y-39695476D01*
X50379285Y-39743095D01*
G04 #@! TO.C,C2*
X50633333Y-32107142D02*
X50585714Y-32154761D01*
X50442857Y-32202380D01*
X50347619Y-32202380D01*
X50204761Y-32154761D01*
X50109523Y-32059523D01*
X50061904Y-31964285D01*
X50014285Y-31773809D01*
X50014285Y-31630952D01*
X50061904Y-31440476D01*
X50109523Y-31345238D01*
X50204761Y-31250000D01*
X50347619Y-31202380D01*
X50442857Y-31202380D01*
X50585714Y-31250000D01*
X50633333Y-31297619D01*
X51014285Y-31297619D02*
X51061904Y-31250000D01*
X51157142Y-31202380D01*
X51395238Y-31202380D01*
X51490476Y-31250000D01*
X51538095Y-31297619D01*
X51585714Y-31392857D01*
X51585714Y-31488095D01*
X51538095Y-31630952D01*
X50966666Y-32202380D01*
X51585714Y-32202380D01*
G04 #@! TO.C,C3*
X70318333Y-64492142D02*
X70270714Y-64539761D01*
X70127857Y-64587380D01*
X70032619Y-64587380D01*
X69889761Y-64539761D01*
X69794523Y-64444523D01*
X69746904Y-64349285D01*
X69699285Y-64158809D01*
X69699285Y-64015952D01*
X69746904Y-63825476D01*
X69794523Y-63730238D01*
X69889761Y-63635000D01*
X70032619Y-63587380D01*
X70127857Y-63587380D01*
X70270714Y-63635000D01*
X70318333Y-63682619D01*
X70651666Y-63587380D02*
X71270714Y-63587380D01*
X70937380Y-63968333D01*
X71080238Y-63968333D01*
X71175476Y-64015952D01*
X71223095Y-64063571D01*
X71270714Y-64158809D01*
X71270714Y-64396904D01*
X71223095Y-64492142D01*
X71175476Y-64539761D01*
X71080238Y-64587380D01*
X70794523Y-64587380D01*
X70699285Y-64539761D01*
X70651666Y-64492142D01*
G04 #@! TO.C,J2*
X52467614Y-34461934D02*
X53181900Y-34461934D01*
X53324757Y-34509553D01*
X53419995Y-34604791D01*
X53467614Y-34747648D01*
X53467614Y-34842886D01*
X52562853Y-34033362D02*
X52515234Y-33985743D01*
X52467614Y-33890505D01*
X52467614Y-33652410D01*
X52515234Y-33557172D01*
X52562853Y-33509553D01*
X52658091Y-33461934D01*
X52753329Y-33461934D01*
X52896186Y-33509553D01*
X53467614Y-34080981D01*
X53467614Y-33461934D01*
G04 #@! TO.C,R1*
X73493333Y-48077380D02*
X73160000Y-47601190D01*
X72921904Y-48077380D02*
X72921904Y-47077380D01*
X73302857Y-47077380D01*
X73398095Y-47125000D01*
X73445714Y-47172619D01*
X73493333Y-47267857D01*
X73493333Y-47410714D01*
X73445714Y-47505952D01*
X73398095Y-47553571D01*
X73302857Y-47601190D01*
X72921904Y-47601190D01*
X74445714Y-48077380D02*
X73874285Y-48077380D01*
X74160000Y-48077380D02*
X74160000Y-47077380D01*
X74064761Y-47220238D01*
X73969523Y-47315476D01*
X73874285Y-47363095D01*
X69730952Y-48077380D02*
X69159523Y-48077380D01*
X69445238Y-48077380D02*
X69445238Y-47077380D01*
X69350000Y-47220238D01*
X69254761Y-47315476D01*
X69159523Y-47363095D01*
X70159523Y-48077380D02*
X70159523Y-47077380D01*
X70254761Y-47696428D02*
X70540476Y-48077380D01*
X70540476Y-47410714D02*
X70159523Y-47791666D01*
G04 #@! TO.C,R3*
X73493333Y-36647380D02*
X73160000Y-36171190D01*
X72921904Y-36647380D02*
X72921904Y-35647380D01*
X73302857Y-35647380D01*
X73398095Y-35695000D01*
X73445714Y-35742619D01*
X73493333Y-35837857D01*
X73493333Y-35980714D01*
X73445714Y-36075952D01*
X73398095Y-36123571D01*
X73302857Y-36171190D01*
X72921904Y-36171190D01*
X73826666Y-35647380D02*
X74445714Y-35647380D01*
X74112380Y-36028333D01*
X74255238Y-36028333D01*
X74350476Y-36075952D01*
X74398095Y-36123571D01*
X74445714Y-36218809D01*
X74445714Y-36456904D01*
X74398095Y-36552142D01*
X74350476Y-36599761D01*
X74255238Y-36647380D01*
X73969523Y-36647380D01*
X73874285Y-36599761D01*
X73826666Y-36552142D01*
X69080238Y-35742619D02*
X69127857Y-35695000D01*
X69223095Y-35647380D01*
X69461190Y-35647380D01*
X69556428Y-35695000D01*
X69604047Y-35742619D01*
X69651666Y-35837857D01*
X69651666Y-35933095D01*
X69604047Y-36075952D01*
X69032619Y-36647380D01*
X69651666Y-36647380D01*
X70080238Y-36552142D02*
X70127857Y-36599761D01*
X70080238Y-36647380D01*
X70032619Y-36599761D01*
X70080238Y-36552142D01*
X70080238Y-36647380D01*
X70508809Y-35742619D02*
X70556428Y-35695000D01*
X70651666Y-35647380D01*
X70889761Y-35647380D01*
X70985000Y-35695000D01*
X71032619Y-35742619D01*
X71080238Y-35837857D01*
X71080238Y-35933095D01*
X71032619Y-36075952D01*
X70461190Y-36647380D01*
X71080238Y-36647380D01*
X71508809Y-36647380D02*
X71508809Y-35647380D01*
X71604047Y-36266428D02*
X71889761Y-36647380D01*
X71889761Y-35980714D02*
X71508809Y-36361666D01*
G04 #@! TO.C,U2*
X67429614Y-33874505D02*
X68239138Y-33874505D01*
X68334376Y-33826886D01*
X68381995Y-33779267D01*
X68429614Y-33684029D01*
X68429614Y-33493553D01*
X68381995Y-33398315D01*
X68334376Y-33350696D01*
X68239138Y-33303077D01*
X67429614Y-33303077D01*
X67524853Y-32874505D02*
X67477234Y-32826886D01*
X67429614Y-32731648D01*
X67429614Y-32493553D01*
X67477234Y-32398315D01*
X67524853Y-32350696D01*
X67620091Y-32303077D01*
X67715329Y-32303077D01*
X67858186Y-32350696D01*
X68429614Y-32922124D01*
X68429614Y-32303077D01*
G04 #@! TO.C,R4*
X62122614Y-47630267D02*
X61646424Y-47963601D01*
X62122614Y-48201696D02*
X61122614Y-48201696D01*
X61122614Y-47820743D01*
X61170234Y-47725505D01*
X61217853Y-47677886D01*
X61313091Y-47630267D01*
X61455948Y-47630267D01*
X61551186Y-47677886D01*
X61598805Y-47725505D01*
X61646424Y-47820743D01*
X61646424Y-48201696D01*
X61455948Y-46773124D02*
X62122614Y-46773124D01*
X61074995Y-47011220D02*
X61789281Y-47249315D01*
X61789281Y-46630267D01*
G04 #@! TO.C,R5*
X57677614Y-47630267D02*
X57201424Y-47963601D01*
X57677614Y-48201696D02*
X56677614Y-48201696D01*
X56677614Y-47820743D01*
X56725234Y-47725505D01*
X56772853Y-47677886D01*
X56868091Y-47630267D01*
X57010948Y-47630267D01*
X57106186Y-47677886D01*
X57153805Y-47725505D01*
X57201424Y-47820743D01*
X57201424Y-48201696D01*
X56677614Y-46725505D02*
X56677614Y-47201696D01*
X57153805Y-47249315D01*
X57106186Y-47201696D01*
X57058567Y-47106458D01*
X57058567Y-46868362D01*
X57106186Y-46773124D01*
X57153805Y-46725505D01*
X57249043Y-46677886D01*
X57487138Y-46677886D01*
X57582376Y-46725505D01*
X57629995Y-46773124D01*
X57677614Y-46868362D01*
X57677614Y-47106458D01*
X57629995Y-47201696D01*
X57582376Y-47249315D01*
G04 #@! TO.C,R6*
X53232614Y-47630267D02*
X52756424Y-47963601D01*
X53232614Y-48201696D02*
X52232614Y-48201696D01*
X52232614Y-47820743D01*
X52280234Y-47725505D01*
X52327853Y-47677886D01*
X52423091Y-47630267D01*
X52565948Y-47630267D01*
X52661186Y-47677886D01*
X52708805Y-47725505D01*
X52756424Y-47820743D01*
X52756424Y-48201696D01*
X52232614Y-46773124D02*
X52232614Y-46963601D01*
X52280234Y-47058839D01*
X52327853Y-47106458D01*
X52470710Y-47201696D01*
X52661186Y-47249315D01*
X53042138Y-47249315D01*
X53137376Y-47201696D01*
X53184995Y-47154077D01*
X53232614Y-47058839D01*
X53232614Y-46868362D01*
X53184995Y-46773124D01*
X53137376Y-46725505D01*
X53042138Y-46677886D01*
X52804043Y-46677886D01*
X52708805Y-46725505D01*
X52661186Y-46773124D01*
X52613567Y-46868362D01*
X52613567Y-47058839D01*
X52661186Y-47154077D01*
X52708805Y-47201696D01*
X52804043Y-47249315D01*
G04 #@! TO.C,J3*
X42624523Y-48057380D02*
X43243571Y-48057380D01*
X42910238Y-48438333D01*
X43053095Y-48438333D01*
X43148333Y-48485952D01*
X43195952Y-48533571D01*
X43243571Y-48628809D01*
X43243571Y-48866904D01*
X43195952Y-48962142D01*
X43148333Y-49009761D01*
X43053095Y-49057380D01*
X42767380Y-49057380D01*
X42672142Y-49009761D01*
X42624523Y-48962142D01*
X43576904Y-48390714D02*
X43815000Y-49057380D01*
X44053095Y-48390714D01*
X44338809Y-48057380D02*
X44957857Y-48057380D01*
X44624523Y-48438333D01*
X44767380Y-48438333D01*
X44862619Y-48485952D01*
X44910238Y-48533571D01*
X44957857Y-48628809D01*
X44957857Y-48866904D01*
X44910238Y-48962142D01*
X44862619Y-49009761D01*
X44767380Y-49057380D01*
X44481666Y-49057380D01*
X44386428Y-49009761D01*
X44338809Y-48962142D01*
G04 #@! TO.C,J4*
X42672142Y-39167380D02*
X42195952Y-39167380D01*
X42148333Y-39643571D01*
X42195952Y-39595952D01*
X42291190Y-39548333D01*
X42529285Y-39548333D01*
X42624523Y-39595952D01*
X42672142Y-39643571D01*
X42719761Y-39738809D01*
X42719761Y-39976904D01*
X42672142Y-40072142D01*
X42624523Y-40119761D01*
X42529285Y-40167380D01*
X42291190Y-40167380D01*
X42195952Y-40119761D01*
X42148333Y-40072142D01*
X43053095Y-39500714D02*
X43291190Y-40167380D01*
X43529285Y-39500714D01*
X44053095Y-40167380D02*
X43957857Y-40119761D01*
X43910238Y-40072142D01*
X43862619Y-39976904D01*
X43862619Y-39691190D01*
X43910238Y-39595952D01*
X43957857Y-39548333D01*
X44053095Y-39500714D01*
X44195952Y-39500714D01*
X44291190Y-39548333D01*
X44338809Y-39595952D01*
X44386428Y-39691190D01*
X44386428Y-39976904D01*
X44338809Y-40072142D01*
X44291190Y-40119761D01*
X44195952Y-40167380D01*
X44053095Y-40167380D01*
X44957857Y-40167380D02*
X44862619Y-40119761D01*
X44815000Y-40024523D01*
X44815000Y-39167380D01*
X45195952Y-39500714D02*
X45576904Y-39500714D01*
X45338809Y-39167380D02*
X45338809Y-40024523D01*
X45386428Y-40119761D01*
X45481666Y-40167380D01*
X45576904Y-40167380D01*
G04 #@! TO.C,J5*
X43053095Y-55725000D02*
X42957857Y-55677380D01*
X42815000Y-55677380D01*
X42672142Y-55725000D01*
X42576904Y-55820238D01*
X42529285Y-55915476D01*
X42481666Y-56105952D01*
X42481666Y-56248809D01*
X42529285Y-56439285D01*
X42576904Y-56534523D01*
X42672142Y-56629761D01*
X42815000Y-56677380D01*
X42910238Y-56677380D01*
X43053095Y-56629761D01*
X43100714Y-56582142D01*
X43100714Y-56248809D01*
X42910238Y-56248809D01*
X43529285Y-56677380D02*
X43529285Y-55677380D01*
X44100714Y-56677380D01*
X44100714Y-55677380D01*
X44576904Y-56677380D02*
X44576904Y-55677380D01*
X44815000Y-55677380D01*
X44957857Y-55725000D01*
X45053095Y-55820238D01*
X45100714Y-55915476D01*
X45148333Y-56105952D01*
X45148333Y-56248809D01*
X45100714Y-56439285D01*
X45053095Y-56534523D01*
X44957857Y-56629761D01*
X44815000Y-56677380D01*
X44576904Y-56677380D01*
G04 #@! TO.C,J1*
X58762380Y-60258333D02*
X59476666Y-60258333D01*
X59619523Y-60305952D01*
X59714761Y-60401190D01*
X59762380Y-60544047D01*
X59762380Y-60639285D01*
X59762380Y-59258333D02*
X59762380Y-59829761D01*
X59762380Y-59544047D02*
X58762380Y-59544047D01*
X58905238Y-59639285D01*
X59000476Y-59734523D01*
X59048095Y-59829761D01*
G04 #@! TD*
M02*
