G04 #@! TF.GenerationSoftware,KiCad,Pcbnew,(5.0.0-3-g5ebb6b6)*
G04 #@! TF.CreationDate,2018-11-13T12:47:17+01:00*
G04 #@! TF.ProjectId,DSMRlogger_v3,44534D526C6F676765725F76332E6B69,rev?*
G04 #@! TF.SameCoordinates,Original*
G04 #@! TF.FileFunction,Soldermask,Top*
G04 #@! TF.FilePolarity,Negative*
%FSLAX46Y46*%
G04 Gerber Fmt 4.6, Leading zero omitted, Abs format (unit mm)*
G04 Created by KiCad (PCBNEW (5.0.0-3-g5ebb6b6)) date Tuesday, 13 November 2018 at 12:47:17*
%MOMM*%
%LPD*%
G01*
G04 APERTURE LIST*
%ADD10O,1.050000X1.500000*%
%ADD11C,0.100000*%
%ADD12C,1.050000*%
%ADD13C,1.600000*%
%ADD14O,1.600000X1.600000*%
%ADD15R,1.600000X1.600000*%
%ADD16R,1.700000X1.700000*%
%ADD17O,1.700000X1.700000*%
%ADD18R,1.727200X1.727200*%
%ADD19O,1.727200X1.727200*%
%ADD20C,4.400000*%
%ADD21C,2.000000*%
%ADD22C,3.250000*%
%ADD23C,1.520000*%
%ADD24R,1.520000X1.520000*%
G04 APERTURE END LIST*
D10*
G04 #@! TO.C,Q1*
X71755000Y-45085000D03*
X70485000Y-43815000D03*
D11*
G36*
X73313229Y-43066264D02*
X73338711Y-43070044D01*
X73363700Y-43076303D01*
X73387954Y-43084982D01*
X73411242Y-43095996D01*
X73433337Y-43109239D01*
X73454028Y-43124585D01*
X73473116Y-43141884D01*
X73490415Y-43160972D01*
X73505761Y-43181663D01*
X73519004Y-43203758D01*
X73530018Y-43227046D01*
X73538697Y-43251300D01*
X73544956Y-43276289D01*
X73548736Y-43301771D01*
X73550000Y-43327500D01*
X73550000Y-44302500D01*
X73548736Y-44328229D01*
X73544956Y-44353711D01*
X73538697Y-44378700D01*
X73530018Y-44402954D01*
X73519004Y-44426242D01*
X73505761Y-44448337D01*
X73490415Y-44469028D01*
X73473116Y-44488116D01*
X73454028Y-44505415D01*
X73433337Y-44520761D01*
X73411242Y-44534004D01*
X73387954Y-44545018D01*
X73363700Y-44553697D01*
X73338711Y-44559956D01*
X73313229Y-44563736D01*
X73287500Y-44565000D01*
X72762500Y-44565000D01*
X72736771Y-44563736D01*
X72711289Y-44559956D01*
X72686300Y-44553697D01*
X72662046Y-44545018D01*
X72638758Y-44534004D01*
X72616663Y-44520761D01*
X72595972Y-44505415D01*
X72576884Y-44488116D01*
X72559585Y-44469028D01*
X72544239Y-44448337D01*
X72530996Y-44426242D01*
X72519982Y-44402954D01*
X72511303Y-44378700D01*
X72505044Y-44353711D01*
X72501264Y-44328229D01*
X72500000Y-44302500D01*
X72500000Y-43327500D01*
X72501264Y-43301771D01*
X72505044Y-43276289D01*
X72511303Y-43251300D01*
X72519982Y-43227046D01*
X72530996Y-43203758D01*
X72544239Y-43181663D01*
X72559585Y-43160972D01*
X72576884Y-43141884D01*
X72595972Y-43124585D01*
X72616663Y-43109239D01*
X72638758Y-43095996D01*
X72662046Y-43084982D01*
X72686300Y-43076303D01*
X72711289Y-43070044D01*
X72736771Y-43066264D01*
X72762500Y-43065000D01*
X73287500Y-43065000D01*
X73313229Y-43066264D01*
X73313229Y-43066264D01*
G37*
D12*
X73025000Y-43815000D03*
G04 #@! TD*
D11*
G04 #@! TO.C,U1*
G36*
X47233229Y-49641264D02*
X47258711Y-49645044D01*
X47283700Y-49651303D01*
X47307954Y-49659982D01*
X47331242Y-49670996D01*
X47353337Y-49684239D01*
X47374028Y-49699585D01*
X47393116Y-49716884D01*
X47410415Y-49735972D01*
X47425761Y-49756663D01*
X47439004Y-49778758D01*
X47450018Y-49802046D01*
X47458697Y-49826300D01*
X47464956Y-49851289D01*
X47468736Y-49876771D01*
X47470000Y-49902500D01*
X47470000Y-50427500D01*
X47468736Y-50453229D01*
X47464956Y-50478711D01*
X47458697Y-50503700D01*
X47450018Y-50527954D01*
X47439004Y-50551242D01*
X47425761Y-50573337D01*
X47410415Y-50594028D01*
X47393116Y-50613116D01*
X47374028Y-50630415D01*
X47353337Y-50645761D01*
X47331242Y-50659004D01*
X47307954Y-50670018D01*
X47283700Y-50678697D01*
X47258711Y-50684956D01*
X47233229Y-50688736D01*
X47207500Y-50690000D01*
X46232500Y-50690000D01*
X46206771Y-50688736D01*
X46181289Y-50684956D01*
X46156300Y-50678697D01*
X46132046Y-50670018D01*
X46108758Y-50659004D01*
X46086663Y-50645761D01*
X46065972Y-50630415D01*
X46046884Y-50613116D01*
X46029585Y-50594028D01*
X46014239Y-50573337D01*
X46000996Y-50551242D01*
X45989982Y-50527954D01*
X45981303Y-50503700D01*
X45975044Y-50478711D01*
X45971264Y-50453229D01*
X45970000Y-50427500D01*
X45970000Y-49902500D01*
X45971264Y-49876771D01*
X45975044Y-49851289D01*
X45981303Y-49826300D01*
X45989982Y-49802046D01*
X46000996Y-49778758D01*
X46014239Y-49756663D01*
X46029585Y-49735972D01*
X46046884Y-49716884D01*
X46065972Y-49699585D01*
X46086663Y-49684239D01*
X46108758Y-49670996D01*
X46132046Y-49659982D01*
X46156300Y-49651303D01*
X46181289Y-49645044D01*
X46206771Y-49641264D01*
X46232500Y-49640000D01*
X47207500Y-49640000D01*
X47233229Y-49641264D01*
X47233229Y-49641264D01*
G37*
D12*
X46720000Y-50165000D03*
D11*
G36*
X48773229Y-48371264D02*
X48798711Y-48375044D01*
X48823700Y-48381303D01*
X48847954Y-48389982D01*
X48871242Y-48400996D01*
X48893337Y-48414239D01*
X48914028Y-48429585D01*
X48933116Y-48446884D01*
X48950415Y-48465972D01*
X48965761Y-48486663D01*
X48979004Y-48508758D01*
X48990018Y-48532046D01*
X48998697Y-48556300D01*
X49004956Y-48581289D01*
X49008736Y-48606771D01*
X49010000Y-48632500D01*
X49010000Y-49157500D01*
X49008736Y-49183229D01*
X49004956Y-49208711D01*
X48998697Y-49233700D01*
X48990018Y-49257954D01*
X48979004Y-49281242D01*
X48965761Y-49303337D01*
X48950415Y-49324028D01*
X48933116Y-49343116D01*
X48914028Y-49360415D01*
X48893337Y-49375761D01*
X48871242Y-49389004D01*
X48847954Y-49400018D01*
X48823700Y-49408697D01*
X48798711Y-49414956D01*
X48773229Y-49418736D01*
X48747500Y-49420000D01*
X47772500Y-49420000D01*
X47746771Y-49418736D01*
X47721289Y-49414956D01*
X47696300Y-49408697D01*
X47672046Y-49400018D01*
X47648758Y-49389004D01*
X47626663Y-49375761D01*
X47605972Y-49360415D01*
X47586884Y-49343116D01*
X47569585Y-49324028D01*
X47554239Y-49303337D01*
X47540996Y-49281242D01*
X47529982Y-49257954D01*
X47521303Y-49233700D01*
X47515044Y-49208711D01*
X47511264Y-49183229D01*
X47510000Y-49157500D01*
X47510000Y-48632500D01*
X47511264Y-48606771D01*
X47515044Y-48581289D01*
X47521303Y-48556300D01*
X47529982Y-48532046D01*
X47540996Y-48508758D01*
X47554239Y-48486663D01*
X47569585Y-48465972D01*
X47586884Y-48446884D01*
X47605972Y-48429585D01*
X47626663Y-48414239D01*
X47648758Y-48400996D01*
X47672046Y-48389982D01*
X47696300Y-48381303D01*
X47721289Y-48375044D01*
X47746771Y-48371264D01*
X47772500Y-48370000D01*
X48747500Y-48370000D01*
X48773229Y-48371264D01*
X48773229Y-48371264D01*
G37*
D12*
X48260000Y-48895000D03*
D11*
G36*
X48773229Y-50911264D02*
X48798711Y-50915044D01*
X48823700Y-50921303D01*
X48847954Y-50929982D01*
X48871242Y-50940996D01*
X48893337Y-50954239D01*
X48914028Y-50969585D01*
X48933116Y-50986884D01*
X48950415Y-51005972D01*
X48965761Y-51026663D01*
X48979004Y-51048758D01*
X48990018Y-51072046D01*
X48998697Y-51096300D01*
X49004956Y-51121289D01*
X49008736Y-51146771D01*
X49010000Y-51172500D01*
X49010000Y-51697500D01*
X49008736Y-51723229D01*
X49004956Y-51748711D01*
X48998697Y-51773700D01*
X48990018Y-51797954D01*
X48979004Y-51821242D01*
X48965761Y-51843337D01*
X48950415Y-51864028D01*
X48933116Y-51883116D01*
X48914028Y-51900415D01*
X48893337Y-51915761D01*
X48871242Y-51929004D01*
X48847954Y-51940018D01*
X48823700Y-51948697D01*
X48798711Y-51954956D01*
X48773229Y-51958736D01*
X48747500Y-51960000D01*
X47772500Y-51960000D01*
X47746771Y-51958736D01*
X47721289Y-51954956D01*
X47696300Y-51948697D01*
X47672046Y-51940018D01*
X47648758Y-51929004D01*
X47626663Y-51915761D01*
X47605972Y-51900415D01*
X47586884Y-51883116D01*
X47569585Y-51864028D01*
X47554239Y-51843337D01*
X47540996Y-51821242D01*
X47529982Y-51797954D01*
X47521303Y-51773700D01*
X47515044Y-51748711D01*
X47511264Y-51723229D01*
X47510000Y-51697500D01*
X47510000Y-51172500D01*
X47511264Y-51146771D01*
X47515044Y-51121289D01*
X47521303Y-51096300D01*
X47529982Y-51072046D01*
X47540996Y-51048758D01*
X47554239Y-51026663D01*
X47569585Y-51005972D01*
X47586884Y-50986884D01*
X47605972Y-50969585D01*
X47626663Y-50954239D01*
X47648758Y-50940996D01*
X47672046Y-50929982D01*
X47696300Y-50921303D01*
X47721289Y-50915044D01*
X47746771Y-50911264D01*
X47772500Y-50910000D01*
X48747500Y-50910000D01*
X48773229Y-50911264D01*
X48773229Y-50911264D01*
G37*
D12*
X48260000Y-51435000D03*
G04 #@! TD*
D13*
G04 #@! TO.C,R2*
X73025000Y-53975000D03*
D14*
X70485000Y-53975000D03*
G04 #@! TD*
D13*
G04 #@! TO.C,C1*
X46895000Y-43180000D03*
D15*
X48895000Y-43180000D03*
G04 #@! TD*
G04 #@! TO.C,C2*
X67310000Y-62230000D03*
D13*
X65310000Y-62230000D03*
G04 #@! TD*
D15*
G04 #@! TO.C,C3*
X48895000Y-34290000D03*
D13*
X46895000Y-34290000D03*
G04 #@! TD*
D16*
G04 #@! TO.C,J2*
X55785234Y-32858601D03*
D17*
X58325234Y-32858601D03*
X58325234Y-35398601D03*
X60865234Y-32858601D03*
X60865234Y-35398601D03*
X63405234Y-32858601D03*
X63405234Y-35398601D03*
G04 #@! TD*
D13*
G04 #@! TO.C,R1*
X73025000Y-49530000D03*
D14*
X70485000Y-49530000D03*
G04 #@! TD*
G04 #@! TO.C,R3*
X70485000Y-38100000D03*
D13*
X73025000Y-38100000D03*
G04 #@! TD*
D18*
G04 #@! TO.C,U2*
X63405234Y-32858601D03*
D19*
X63405234Y-35398601D03*
X60865234Y-32858601D03*
X60865234Y-35398601D03*
X58325234Y-32858601D03*
X58325234Y-35398601D03*
X55785234Y-32858601D03*
X55785234Y-35398601D03*
G04 #@! TD*
D20*
G04 #@! TO.C,MH1*
X43180000Y-31115000D03*
G04 #@! TD*
G04 #@! TO.C,MH3*
X71755000Y-31115000D03*
G04 #@! TD*
G04 #@! TO.C,MH4*
X71755000Y-70485000D03*
G04 #@! TD*
D13*
G04 #@! TO.C,R4*
X64040234Y-52543601D03*
D14*
X64040234Y-42383601D03*
G04 #@! TD*
G04 #@! TO.C,R5*
X59595234Y-42383601D03*
D13*
X59595234Y-52543601D03*
G04 #@! TD*
G04 #@! TO.C,R6*
X55150234Y-52543601D03*
D14*
X55150234Y-42383601D03*
G04 #@! TD*
D21*
G04 #@! TO.C,J3*
X43815000Y-46355000D03*
G04 #@! TD*
G04 #@! TO.C,J4*
X43815000Y-37465000D03*
G04 #@! TD*
G04 #@! TO.C,J5*
X43815000Y-53975000D03*
G04 #@! TD*
D22*
G04 #@! TO.C,J1*
X48260000Y-69845000D03*
D23*
X54610000Y-67945000D03*
X57150000Y-66675000D03*
X54610000Y-65405000D03*
X57150000Y-64135000D03*
X54610000Y-62865000D03*
D22*
X48260000Y-59685000D03*
D24*
X57150000Y-61595000D03*
G04 #@! TD*
M02*
